<svg width="1440" height="1024" viewBox="0 0 1440 1024" fill="none" xmlns="http://www.w3.org/2000/svg">
<rect width="1440" height="1024" fill="#121214"/>
<path d="M1243.5 202.5C1243.5 467.032 1023.24 681.5 751.5 681.5C479.763 681.5 259.5 467.032 259.5 202.5C259.5 -62.0319 479.763 -276.5 751.5 -276.5C1023.24 -276.5 1243.5 -62.0319 1243.5 202.5Z" stroke="#242323"/>
<path d="M434.905 569.849C435.802 568.145 435.838 567.859 437.057 568.656L437.384 568.816C438.389 569.253 439.807 569.554 440.745 569.495C442.737 569.358 444.242 568.43 442.442 568.137C438.337 567.466 438.554 566.072 438.554 566.072C444.854 561.646 449.431 554.72 448.687 552.313C446.667 545.745 438.906 545.516 438.767 545.536L438.728 545.528C438.038 545.083 437.244 544.674 436.288 544.293C434.576 543.608 433.087 543.586 431.807 543.958C431.807 543.958 421.52 534.255 417.742 545.831C416.938 548.294 414.204 565.453 420.031 562.174C422.162 560.977 424.139 560.032 424.139 560.032C424.658 560.764 425.406 561.321 426.317 561.572L426.408 561.54C426.3 561.76 426.222 561.993 426.174 562.232C424.709 562.988 424.934 563.305 422.719 562.942C420.478 562.575 421.408 563.804 422.127 564.309C423 564.921 425.105 566.118 427.425 564.582L427.272 564.8C427.551 565.276 426.761 567.26 426.275 568.707C425.789 570.154 425.374 571.521 425.365 572.415C425.356 573.31 424.924 575.461 427.839 575.927C430.279 576.307 432.27 576.27 434.903 569.862" fill="black"/>
<path d="M434.905 569.849C435.802 568.145 435.838 567.859 437.057 568.656L437.384 568.816C438.389 569.253 439.807 569.554 440.745 569.495C442.737 569.358 444.242 568.43 442.442 568.137C438.337 567.466 438.554 566.072 438.554 566.072C444.854 561.646 449.431 554.72 448.687 552.313C446.667 545.745 438.906 545.516 438.767 545.536L438.728 545.528C438.038 545.083 437.244 544.674 436.288 544.293C434.576 543.608 433.087 543.586 431.807 543.958C431.807 543.958 421.52 534.255 417.742 545.831C416.938 548.294 414.204 565.453 420.031 562.174C422.162 560.977 424.139 560.032 424.139 560.032C424.658 560.764 425.406 561.321 426.317 561.572L426.408 561.54C426.3 561.76 426.222 561.993 426.174 562.232C424.709 562.988 424.934 563.305 422.719 562.942C420.478 562.575 421.408 563.804 422.127 564.309C423 564.921 425.105 566.118 427.425 564.582L427.272 564.8C427.551 565.276 426.761 567.26 426.275 568.707C425.789 570.154 425.374 571.521 425.365 572.415C425.356 573.31 424.924 575.461 427.839 575.927C430.279 576.307 432.27 576.27 434.903 569.862" stroke="black" stroke-width="5.3725"/>
<path d="M442.426 568.145C438.321 567.474 438.538 566.079 438.538 566.079C444.838 561.654 449.415 554.727 448.672 552.32C446.652 545.753 438.89 545.525 438.752 545.543L438.713 545.536C437.941 545.048 437.124 544.634 436.275 544.3C434.563 543.615 433.074 543.593 431.794 543.965C431.794 543.965 421.505 534.262 417.729 545.838C416.925 548.301 414.191 565.46 420.018 562.181C422.162 560.977 424.139 560.032 424.139 560.032C424.658 560.764 425.406 561.321 426.317 561.572L426.408 561.54C426.301 561.76 426.222 561.993 426.174 562.232C424.709 562.988 424.934 563.305 422.719 562.942C420.478 562.575 421.408 563.804 422.127 564.309C423 564.921 425.105 566.118 427.425 564.582L427.272 564.8C427.551 565.276 427.154 567.158 426.491 568.749C425.829 570.339 425.375 571.43 425.361 572.415C425.346 573.399 424.92 575.461 427.835 575.927C430.275 576.306 431.922 575.499 432.885 573.474C433.569 572.033 433.746 572.351 434.272 571.032L434.724 570.483C435.735 568.561 435.782 567.835 437.055 568.669L437.382 568.829C438.387 569.266 439.806 569.568 440.73 569.503C442.722 569.366 444.227 568.438 442.427 568.145L442.426 568.145Z" fill="#363636"/>
<path d="M427.876 563.887C426.338 567.593 425.026 571.416 425.045 572.462C425.065 573.507 425.165 575.601 428.085 576.057C430.525 576.437 431.705 575.815 432.85 573.886L436.21 567.6M431.825 543.868C431.825 543.868 421.515 534.196 417.739 545.773C416.935 548.236 414.201 565.395 420.028 562.116C422.155 560.918 423.996 560.049 423.996 560.049M438.774 545.481C438.303 545.452 446.582 545.442 448.681 552.256C449.42 554.662 444.846 561.589 438.546 566.015" stroke="#EBEBEB" stroke-width="1.79" stroke-linecap="round" stroke-linejoin="round"/>
<path d="M438.548 566.012C438.548 566.012 438.318 567.403 442.437 568.076C444.236 568.37 442.73 569.296 440.74 569.434C439.106 569.549 435.931 568.523 436.22 567.614C436.967 565.267 438.469 566.642 438.561 566.017C438.644 565.454 438.046 564.643 438.01 563.175C437.976 561.894 435.415 551.181 442.811 555.455C443.123 555.506 443.627 547.166 436.297 544.237C428.967 541.309 425.691 550.57 425.691 550.57" stroke="#EBEBEB" stroke-width="1.79" stroke-linecap="round" stroke-linejoin="bevel"/>
<path d="M426.165 562.178C424.699 562.933 424.925 563.25 422.71 562.887C420.469 562.52 421.399 563.75 422.118 564.254C422.991 564.866 425.095 566.063 427.416 564.526C428.123 564.057 428.053 562.853 427.521 562.351C427.264 562.107 426.916 561.793 426.167 562.18L426.165 562.178Z" stroke="#EBEBEB" stroke-width="1.79" stroke-linejoin="round"/>
<path d="M426.106 562.132C426.259 561.417 426.892 560.74 427.6 559.933C428.663 558.725 430.41 557.779 431.155 552.938C431.709 549.332 425.865 550.119 425.692 550.57C425.52 551.022 425.035 552.944 423.919 554.97C422.459 557.613 423.724 560.804 426.312 561.518" stroke="#EBEBEB" stroke-width="1.79" stroke-linecap="round" stroke-linejoin="round"/>
<path d="M428.787 551.677C428.705 551.822 428.853 552.351 429.228 552.558C429.603 552.765 430.064 552.573 430.146 552.427C430.228 552.28 429.987 551.994 429.612 551.788C429.237 551.581 428.865 551.532 428.787 551.677Z" fill="#EBEBEB" stroke="#EBEBEB" stroke-width="0.5975"/>
<path d="M440.97 555.977C440.932 556.139 440.471 556.435 440.053 556.339C439.636 556.243 439.418 555.791 439.457 555.628C439.497 555.465 439.864 555.412 440.282 555.509C440.699 555.605 441.009 555.817 440.97 555.977Z" fill="#EBEBEB" stroke="#EBEBEB" stroke-width="0.2975"/>
<path d="M442.795 555.452C442.398 556.688 441.756 557.386 441.221 558.658C440.445 560.507 440.578 563.015 438.321 564.611" stroke="#EBEBEB" stroke-width="1.79" stroke-linecap="round" stroke-linejoin="round"/>
<g clip-path="url(#clip0_2_95)">
<path d="M584.498 643.307L587.99 644.071L587.209 647.641L588.975 648.028C589.802 648.205 590.652 648.247 591.492 648.152C591.932 648.106 592.366 648.014 592.788 647.878C592.454 647.112 592.342 646.268 592.463 645.441C592.576 644.221 593.144 643.087 594.054 642.266L594.513 641.921L594.873 642.369C595.846 643.472 596.355 644.91 596.293 646.38C597.731 646.261 599.158 646.715 600.263 647.644L600.682 648.025L600.323 648.458C599.623 649.207 598.717 649.731 597.719 649.964C596.721 650.198 595.676 650.13 594.717 649.769C590.041 656.638 582.678 658.764 574.694 657.017C570.569 656.115 567.123 653.745 565.768 649.615L565.746 649.548L565.577 648.847C565.22 647.077 565.33 645.246 565.896 643.532L566.061 643.014L569.047 643.667L569.827 640.098L573.321 640.862L574.086 637.366L581.072 638.894L581.835 635.404L586.026 636.321L584.498 643.307Z" fill="#363636"/>
<path d="M575.782 656.632C574.232 655.53 573.157 653.883 572.772 652.021C571.816 652.065 570.858 652.003 569.916 651.835C569.504 651.769 569.076 651.687 568.633 651.59C568.118 651.478 567.58 651.344 567.017 651.19C567.866 652.574 569.002 653.759 570.349 654.666C571.697 655.572 573.223 656.177 574.825 656.441C575.144 656.511 575.463 656.574 575.782 656.632Z" fill="#EBEBEB"/>
<path d="M572.764 641.614L573.008 641.667L572.456 644.191L572.212 644.138L572.764 641.614ZM572.305 641.514L572.549 641.567L571.997 644.091L571.748 644.037L572.3 641.512L572.305 641.514ZM571.845 641.413L572.09 641.467L571.537 643.991L571.293 643.937L571.845 641.413ZM571.386 641.313L571.63 641.366L571.078 643.89L570.834 643.837L571.386 641.313ZM570.927 641.212L571.171 641.266L570.619 643.79L570.375 643.736L570.927 641.212ZM570.478 641.114L570.722 641.167L570.17 643.691L569.926 643.638L570.478 641.114ZM570.279 640.807L573.31 641.47L572.647 644.497L569.617 643.834L570.279 640.807ZM574.534 638.077L577.563 638.739L576.9 641.767L573.877 641.105L574.534 638.077ZM577.015 638.884L577.259 638.938L576.708 641.461L576.463 641.407L577.015 638.884ZM576.556 638.784L576.8 638.837L576.248 641.36L576.004 641.307L576.556 638.784ZM576.097 638.684L576.341 638.737L575.789 641.26L575.545 641.206L576.097 638.684ZM575.638 638.583L575.882 638.637L575.33 641.159L575.086 641.106L575.638 638.583ZM575.179 638.483L575.423 638.536L574.871 641.059L574.627 641.006L575.179 638.483ZM574.729 638.384L574.973 638.438L574.422 640.961L574.177 640.907L574.729 638.384ZM573.768 641.569L576.796 642.231L576.134 645.26L573.113 644.599L573.775 641.572L573.768 641.569ZM576.249 642.376L576.493 642.43L575.941 644.954L575.697 644.9L576.249 642.376ZM575.79 642.276L576.034 642.329L575.482 644.853L575.237 644.8L575.79 642.276ZM575.33 642.175L575.575 642.229L575.023 644.753L574.778 644.7L575.33 642.175ZM574.871 642.075L575.116 642.128L574.563 644.653L574.319 644.599L574.871 642.075ZM574.412 641.975L574.656 642.028L574.104 644.552L573.86 644.499L574.412 641.975ZM573.963 641.876L574.207 641.93L573.655 644.454L573.411 644.4L573.963 641.876ZM577.259 642.332L580.292 642.996L579.63 646.024L576.601 645.362L577.264 642.335L577.259 642.332ZM579.739 643.14L579.993 643.195L579.441 645.719L579.196 645.666L579.739 643.14ZM579.28 643.039L579.524 643.093L578.972 645.617L578.727 645.563L579.28 643.039ZM578.82 642.939L579.065 642.992L578.513 645.516L578.268 645.463L578.82 642.939ZM578.361 642.838L578.606 642.892L578.053 645.416L577.809 645.363L578.361 642.838ZM577.902 642.738L578.146 642.791L577.594 645.316L577.35 645.262L577.902 642.738ZM577.453 642.64L577.697 642.693L577.145 645.217L576.901 645.164L577.453 642.64ZM578.021 638.84L581.056 639.504L580.394 642.531L577.366 641.868L578.028 638.841L578.021 638.84ZM580.5 639.647L580.757 639.703L580.205 642.226L579.961 642.172L580.5 639.647ZM580.041 639.546L580.285 639.6L579.733 642.123L579.489 642.069L580.041 639.546ZM579.582 639.446L579.826 639.499L579.274 642.022L579.03 641.969L579.582 639.446ZM579.123 639.346L579.367 639.399L578.815 641.922L578.571 641.868L579.123 639.346ZM578.664 639.245L578.908 639.299L578.356 641.821L578.112 641.768L578.664 639.245ZM578.214 639.147L578.459 639.2L577.907 641.723L577.662 641.67L578.214 639.147ZM580.747 643.095L583.774 643.758L583.111 646.786L580.083 646.124L580.745 643.096L580.747 643.095ZM583.226 643.903L583.47 643.956L582.918 646.48L582.674 646.427L583.226 643.903ZM582.767 643.802L583.011 643.856L582.459 646.38L582.215 646.326L582.767 643.802ZM582.308 643.702L582.552 643.755L582 646.279L581.756 646.226L582.308 643.702ZM581.849 643.601L582.093 643.655L581.541 646.179L581.297 646.125L581.849 643.601ZM581.39 643.501L581.634 643.554L581.082 646.078L580.838 646.025L581.39 643.501ZM580.94 643.403L581.175 643.454L580.623 645.978L580.378 645.925L580.931 643.401L580.94 643.403ZM581.508 639.602L584.535 640.265L583.873 643.292L580.845 642.629L581.507 639.602L581.508 639.602ZM583.988 640.41L584.232 640.463L583.68 642.986L583.436 642.933L583.988 640.41ZM583.529 640.309L583.773 640.363L583.221 642.886L582.977 642.832L583.529 640.309ZM583.07 640.209L583.314 640.262L582.762 642.785L582.518 642.732L583.07 640.209ZM582.61 640.108L582.855 640.162L582.303 642.685L582.058 642.631L582.61 640.108ZM582.151 640.008L582.395 640.061L581.844 642.584L581.599 642.531L582.151 640.008ZM581.702 639.91L581.936 639.961L581.384 642.484L581.14 642.43L581.692 639.908L581.702 639.91ZM582.27 636.109L585.297 636.772L584.634 639.801L581.606 639.139L582.268 636.109L582.27 636.109ZM584.75 636.916L584.994 636.969L584.442 639.492L584.198 639.438L584.75 636.916ZM584.29 636.815L584.535 636.869L583.983 639.391L583.739 639.338L584.29 636.815ZM583.831 636.715L584.076 636.768L583.524 639.291L583.279 639.238L583.831 636.715ZM583.372 636.614L583.616 636.668L583.065 639.191L582.82 639.137L583.372 636.614ZM582.913 636.514L583.157 636.567L582.605 639.09L582.361 639.037L582.913 636.514ZM582.464 636.416L582.698 636.467L582.146 638.99L581.902 638.936L582.454 636.413L582.464 636.416ZM584.232 643.858L587.259 644.52L586.596 647.548L583.568 646.886L584.23 643.859L584.232 643.858ZM586.711 644.665L586.949 644.717L586.397 647.241L586.153 647.188L586.705 644.664L586.711 644.665ZM586.252 644.565L586.504 644.62L585.952 647.144L585.7 647.089L586.252 644.565ZM585.793 644.464L586.037 644.518L585.485 647.042L585.241 646.988L585.793 644.464ZM585.334 644.364L585.578 644.417L585.026 646.941L584.782 646.888L585.334 644.364ZM584.875 644.263L585.119 644.317L584.567 646.841L584.317 646.786L584.869 644.262L584.875 644.263ZM584.425 644.165L584.67 644.218L584.118 646.743L583.881 646.691L584.433 644.167L584.425 644.165Z" fill="#EBEBEB"/>
<path d="M574.878 650.128C575.043 650.164 575.194 650.248 575.311 650.37C575.429 650.492 575.507 650.646 575.537 650.812C575.567 650.978 575.547 651.15 575.479 651.305C575.411 651.46 575.299 651.591 575.157 651.683C575.015 651.774 574.848 651.821 574.679 651.818C574.51 651.814 574.346 651.761 574.207 651.665C574.068 651.568 573.961 651.432 573.899 651.275C573.838 651.117 573.824 650.945 573.86 650.78C573.909 650.559 574.043 650.365 574.234 650.243C574.425 650.121 574.657 650.079 574.878 650.128ZM574.826 650.364C574.9 650.381 574.971 650.41 575.034 650.452C574.997 650.464 574.963 650.484 574.935 650.51C574.907 650.537 574.886 650.57 574.873 650.606C574.86 650.643 574.856 650.682 574.86 650.72C574.865 650.759 574.878 650.795 574.899 650.828C574.921 650.86 574.949 650.887 574.983 650.907C575.016 650.926 575.053 650.938 575.092 650.94C575.131 650.943 575.169 650.936 575.205 650.921C575.241 650.906 575.272 650.883 575.298 650.854C575.322 650.983 575.303 651.117 575.245 651.235C575.188 651.353 575.093 651.449 574.976 651.51C574.86 651.57 574.726 651.591 574.597 651.57C574.467 651.549 574.347 651.486 574.256 651.392C574.164 651.298 574.106 651.176 574.088 651.046C574.071 650.916 574.096 650.783 574.16 650.668C574.224 650.553 574.323 650.462 574.442 650.408C574.562 650.353 574.696 650.339 574.825 650.367L574.826 650.364Z" fill="#EBEBEB"/>
</g>
<g clip-path="url(#clip1_2_95)">
<path d="M746.305 689.611L745.068 688.896L758.853 665.02L760.091 665.735L746.305 689.611Z" fill="#363636"/>
<path d="M744.784 686.989H772.355V688.418H744.784V686.989Z" fill="#363636"/>
<path d="M759.12 695.754L745.33 687.792L746.044 686.554L759.835 694.517L759.12 695.754ZM771.1 675.002L757.31 667.04L758.024 665.803L771.815 673.765L771.1 675.002Z" fill="#363636"/>
<path d="M746.048 674.997L745.334 673.759L759.124 665.797L759.839 667.035L746.048 674.997Z" fill="#363636"/>
<path d="M770.846 689.611L757.061 665.735L758.298 665.02L772.083 688.897L770.846 689.611ZM745.877 672.812H747.306V688.736H745.877V672.812ZM769.842 672.812H771.271V688.736H769.842V672.812Z" fill="#363636"/>
<path d="M758.877 695.149L758.253 694.068L770.247 687.143L770.871 688.224L758.877 695.149Z" fill="#363636"/>
<path d="M773.164 689.201C772.338 690.639 770.496 691.129 769.058 690.303C767.621 689.477 767.13 687.635 767.957 686.197C768.783 684.76 770.625 684.269 772.062 685.095C773.509 685.93 773.999 687.764 773.164 689.201ZM749.183 675.351C748.357 676.789 746.514 677.279 745.077 676.453C743.639 675.627 743.149 673.785 743.975 672.347C744.801 670.91 746.644 670.419 748.081 671.245C749.519 672.08 750.009 673.914 749.183 675.351ZM743.984 689.201C743.157 687.764 743.648 685.93 745.086 685.095C746.523 684.269 748.357 684.76 749.191 686.197C750.018 687.635 749.527 689.468 748.09 690.303C746.644 691.129 744.81 690.639 743.984 689.201ZM767.965 675.351C767.139 673.914 767.629 672.08 769.067 671.245C770.504 670.419 772.338 670.91 773.173 672.347C773.999 673.785 773.509 675.618 772.071 676.453C770.634 677.279 768.791 676.789 767.965 675.351ZM758.574 697.628C756.913 697.628 755.57 696.285 755.57 694.624C755.57 692.963 756.913 691.62 758.574 691.62C760.235 691.62 761.578 692.963 761.578 694.624C761.578 696.277 760.235 697.628 758.574 697.628ZM758.574 669.928C756.913 669.928 755.57 668.585 755.57 666.924C755.57 665.263 756.913 663.92 758.574 663.92C760.235 663.92 761.578 665.263 761.578 666.924C761.578 668.585 760.235 669.928 758.574 669.928Z" fill="#363636"/>
</g>
<path d="M958.84 644.441L943.559 629.16C943.35 628.95 943.101 628.784 942.828 628.67C942.554 628.557 942.261 628.498 941.965 628.498C941.669 628.498 941.376 628.557 941.102 628.67C940.829 628.784 940.58 628.95 940.371 629.16L937.197 632.334L941.222 636.359C941.697 636.197 942.208 636.172 942.696 636.287C943.184 636.401 943.63 636.65 943.983 637.006C944.337 637.362 944.583 637.81 944.694 638.299C944.805 638.787 944.777 639.298 944.612 639.771L948.487 643.646C949.067 643.447 949.697 643.453 950.272 643.662C950.848 643.871 951.335 644.271 951.651 644.795C951.968 645.32 952.095 645.937 952.012 646.543C951.929 647.15 951.64 647.71 951.194 648.13C950.748 648.55 950.172 648.804 949.561 648.851C948.951 648.897 948.343 648.733 947.838 648.386C947.334 648.038 946.964 647.528 946.79 646.941C946.615 646.354 946.648 645.725 946.881 645.159L943.262 641.54V651.061C943.811 651.333 944.249 651.784 944.505 652.34C944.761 652.895 944.819 653.522 944.669 654.115C944.519 654.708 944.17 655.232 943.681 655.599C943.192 655.967 942.592 656.155 941.98 656.134C941.369 656.112 940.783 655.882 940.321 655.481C939.859 655.081 939.548 654.534 939.44 653.931C939.332 653.329 939.434 652.708 939.728 652.172C940.022 651.636 940.492 651.216 941.057 650.984V641.375C940.73 641.241 940.433 641.043 940.182 640.793C939.931 640.543 939.733 640.246 939.597 639.919C939.462 639.592 939.393 639.242 939.393 638.888C939.394 638.534 939.465 638.184 939.601 637.858L935.639 633.893L925.16 644.375C924.95 644.584 924.783 644.833 924.67 645.106C924.556 645.38 924.498 645.673 924.498 645.969C924.498 646.266 924.556 646.559 924.67 646.833C924.783 647.106 924.95 647.355 925.16 647.564L940.441 662.84C940.65 663.05 940.899 663.216 941.172 663.33C941.446 663.443 941.739 663.502 942.035 663.502C942.331 663.502 942.624 663.443 942.898 663.33C943.171 663.216 943.42 663.05 943.629 662.84L958.84 647.625C959.05 647.416 959.217 647.167 959.33 646.894C959.444 646.62 959.502 646.327 959.502 646.031C959.502 645.734 959.444 645.441 959.33 645.167C959.217 644.894 959.05 644.645 958.84 644.436" fill="#363636"/>
<path d="M937.198 632.334L941.223 636.359C941.697 636.197 942.208 636.172 942.696 636.287C943.184 636.401 943.63 636.651 943.983 637.006C944.337 637.362 944.583 637.81 944.694 638.299C944.805 638.787 944.777 639.298 944.613 639.771L948.488 643.646C949.067 643.447 949.697 643.453 950.272 643.662C950.848 643.871 951.335 644.271 951.651 644.795C951.968 645.32 952.095 645.937 952.012 646.543C951.929 647.15 951.64 647.71 951.194 648.13C950.748 648.55 950.172 648.804 949.561 648.851C948.951 648.897 948.343 648.733 947.838 648.386C947.334 648.038 946.964 647.528 946.79 646.941C946.616 646.354 946.648 645.725 946.881 645.159L943.263 641.54V651.061C943.811 651.333 944.249 651.784 944.505 652.34C944.761 652.895 944.819 653.522 944.669 654.115C944.519 654.708 944.171 655.232 943.681 655.599C943.192 655.967 942.592 656.155 941.98 656.134C941.369 656.112 940.783 655.882 940.321 655.481C939.859 655.081 939.548 654.534 939.44 653.931C939.332 653.329 939.434 652.708 939.728 652.172C940.022 651.636 940.492 651.216 941.058 650.984V641.375C940.73 641.241 940.433 641.043 940.182 640.793C939.931 640.543 939.733 640.246 939.597 639.919C939.462 639.592 939.393 639.242 939.393 638.888C939.394 638.534 939.465 638.184 939.601 637.858L935.639 633.893" fill="#696968"/>
<g clip-path="url(#clip2_2_95)">
<path d="M1124.71 521.179C1125.81 520.179 1125.95 518.491 1125 517.292C1124.06 516.093 1122.31 515.866 1121.08 516.772L1121 516.833C1119.76 517.81 1119.56 519.601 1120.54 520.84C1121.03 521.424 1121.67 521.776 1122.31 521.872C1122.94 525.644 1122.29 529.223 1120.34 533.259C1119.01 536.008 1117.06 538.08 1114.6 539.455C1112.57 540.569 1110.53 540.807 1108.64 540.12C1105.84 539.08 1104.12 537 1103.62 534.013C1103.25 531.882 1103.64 529.829 1103.99 528.681C1103.44 528.27 1102.52 527.55 1101.92 526.985C1099.15 535.668 1104.06 541.031 1107.89 542.446C1110.75 543.497 1114.43 542.742 1117.46 540.506C1118.28 539.901 1119.04 539.215 1119.71 538.406C1124.19 533.514 1125.87 527.469 1124.71 521.179ZM1128.17 510.781C1122.37 509.432 1116.3 510.809 1111.06 514.677L1110.4 515.161C1109.49 514.695 1108.35 514.778 1107.49 515.413L1107.4 515.473C1106.17 516.451 1105.97 518.241 1106.95 519.481C1107.89 520.679 1109.64 520.907 1110.87 520L1110.95 519.94C1111.82 519.234 1112.18 518.086 1111.93 517.066L1112.67 516.522C1115.78 514.226 1119.4 512.951 1123.36 512.748C1126.4 512.589 1129.18 513.263 1131.57 514.788C1133.53 515.995 1134.73 517.705 1135.05 519.682C1135.51 522.699 1134.46 525.308 1131.92 527.181C1130.28 528.39 1128.36 529.047 1127.27 529.282C1127.12 530.024 1126.79 531.284 1126.52 532.117C1128.88 531.637 1131.02 530.758 1132.74 529.489C1136.67 526.588 1137.98 522.271 1137.48 519.284C1136.91 516.032 1133.81 511.996 1128.17 510.781ZM1111.62 531.908C1112.57 533.106 1114.32 533.334 1115.55 532.427L1115.63 532.367C1116.87 531.389 1117.07 529.599 1116.09 528.359C1115.14 527.16 1113.39 526.933 1112.16 527.84L1112.08 527.9C1112 527.96 1111.88 528.051 1111.83 528.152C1108.09 526.606 1105.16 524.089 1102.99 520.63C1101.34 518.052 1100.58 515.317 1100.72 512.498C1100.79 510.106 1102.54 507.677 1104.07 506.487C1108.35 503.202 1114.18 507.249 1115.9 509.33C1116.53 509.06 1117.64 508.682 1118.4 508.433C1113.02 502.16 1106.38 501.741 1102.45 504.642C1098.76 507.362 1097.33 512.533 1098.88 517.462C1100.86 524.095 1105.81 528.227 1111.03 530.508C1111.04 530.946 1111.25 531.487 1111.62 531.908L1111.62 531.908Z" fill="#363636"/>
</g>
<g clip-path="url(#clip3_2_95)">
<path d="M1210.71 345.213C1211.15 345.435 1211.64 345.583 1212.13 345.653C1212.57 345.69 1213 345.69 1213.44 345.654C1213.57 345.635 1213.71 345.652 1213.83 345.702C1213.92 345.754 1214 345.825 1214.05 345.911C1214.11 345.997 1214.14 346.095 1214.15 346.196L1214.37 347.396C1214.4 347.552 1214.38 347.712 1214.33 347.859C1214.28 347.942 1214.23 348.016 1214.15 348.076C1214.08 348.137 1214 348.182 1213.91 348.21C1213.61 348.326 1213.29 348.402 1212.96 348.437C1212.64 348.473 1212.27 348.49 1211.84 348.487C1212.27 349.323 1212.49 350.244 1212.5 351.181C1212.52 352.118 1212.31 353.045 1211.91 353.891C1211.69 354.455 1211.36 354.97 1210.94 355.404C1210.52 355.838 1210.01 356.184 1209.45 356.42C1208.9 356.622 1208.31 356.708 1207.72 356.671C1207.13 356.634 1206.56 356.476 1206.04 356.206C1205.44 355.965 1204.91 355.594 1204.48 355.121C1204.05 354.647 1203.73 354.083 1203.55 353.469C1203.19 352.038 1203.38 350.528 1204.06 349.221C1204.31 348.686 1204.59 348.169 1204.91 347.673C1205.24 347.151 1205.61 346.621 1206.03 346.084L1204.91 345.579C1204.08 345.094 1203.1 344.957 1202.17 345.196C1201.31 345.653 1200.65 346.422 1200.34 347.345C1200.1 347.895 1199.92 348.472 1199.8 349.065C1199.68 349.681 1199.61 350.304 1199.58 350.93C1199.58 351.137 1199.57 351.344 1199.54 351.549L1199.43 351.786C1199.34 351.999 1199.13 352.033 1198.81 351.889L1198.1 351.562C1197.91 351.492 1197.74 351.371 1197.62 351.213C1197.53 351.035 1197.49 350.839 1197.49 350.64C1197.48 349.898 1197.54 349.157 1197.68 348.427C1197.83 347.567 1198.09 346.73 1198.46 345.937C1198.98 344.449 1200.07 343.228 1201.49 342.536C1202.19 342.315 1202.94 342.24 1203.68 342.315C1204.42 342.39 1205.13 342.614 1205.78 342.973L1210.71 345.213ZM1210.21 352.405C1210.45 351.868 1210.59 351.295 1210.64 350.711C1210.7 350.069 1210.59 349.423 1210.32 348.839C1210.16 348.485 1209.93 348.169 1209.64 347.915C1209.26 347.615 1208.84 347.366 1208.4 347.173L1207.76 346.883C1207.44 347.293 1207.14 347.719 1206.87 348.16C1206.6 348.604 1206.35 349.064 1206.13 349.539C1205.71 350.309 1205.57 351.2 1205.72 352.065C1205.82 352.398 1206 352.704 1206.23 352.96C1206.47 353.217 1206.76 353.419 1207.08 353.55C1207.36 353.703 1207.67 353.798 1207.99 353.828C1208.31 353.858 1208.63 353.822 1208.93 353.723C1209.22 353.598 1209.49 353.418 1209.71 353.191C1209.92 352.965 1210.1 352.698 1210.21 352.405ZM1217.38 340.998C1217.31 341.211 1217.16 341.393 1216.97 341.514C1216.73 341.602 1216.48 341.619 1216.23 341.564L1202.92 339.781C1202.69 339.76 1202.46 339.712 1202.24 339.64C1202.19 339.625 1202.14 339.597 1202.1 339.558C1202.06 339.52 1202.02 339.473 1202 339.42C1201.98 339.367 1201.98 339.31 1201.98 339.254C1201.99 339.198 1202.01 339.144 1202.04 339.097L1202.72 337.613C1202.79 337.396 1202.94 337.21 1203.13 337.088C1203.37 337.013 1203.62 337.002 1203.86 337.056L1215.03 339.071L1206.09 332.159C1205.88 332.022 1205.72 331.824 1205.64 331.594C1205.61 331.36 1205.66 331.123 1205.77 330.918L1206.33 329.698C1206.41 329.476 1206.55 329.286 1206.75 329.154C1206.98 329.07 1207.24 329.063 1207.47 329.132L1218.69 331.368L1209.75 324.135C1209.55 323.986 1209.39 323.786 1209.29 323.556C1209.26 323.329 1209.3 323.097 1209.42 322.898L1210.06 321.496C1210.07 321.442 1210.1 321.392 1210.14 321.351C1210.18 321.309 1210.22 321.277 1210.28 321.257C1210.33 321.237 1210.39 321.23 1210.44 321.237C1210.5 321.243 1210.55 321.262 1210.6 321.293C1210.68 321.321 1210.76 321.357 1210.84 321.4C1210.95 321.487 1211.06 321.58 1211.16 321.679L1221.21 330.644C1221.41 330.793 1221.57 330.997 1221.66 331.232C1221.69 331.456 1221.65 331.684 1221.54 331.881L1220.93 333.21C1220.86 333.435 1220.7 333.627 1220.5 333.749C1220.26 333.829 1220 333.833 1219.76 333.763L1208.94 331.687L1217.62 338.447C1217.83 338.584 1218 338.783 1218.09 339.016C1218.14 339.25 1218.09 339.491 1217.97 339.696L1217.38 340.998ZM1226.62 321.736C1226.27 322.521 1225.82 323.263 1225.3 323.947C1224.9 324.499 1224.43 324.993 1223.89 325.417C1223.75 325.551 1223.57 325.639 1223.37 325.669C1223.18 325.699 1222.97 325.671 1222.8 325.587L1222.03 325.24C1221.72 325.096 1221.61 324.909 1221.71 324.678C1221.76 324.582 1221.82 324.495 1221.9 324.421L1222.23 324.109C1222.71 323.682 1223.14 323.204 1223.51 322.683C1223.91 322.14 1224.25 321.558 1224.52 320.946C1224.92 320.196 1225.09 319.351 1225.03 318.506C1224.99 318.193 1224.88 317.895 1224.69 317.643C1224.5 317.391 1224.24 317.194 1223.95 317.073C1223.76 316.98 1223.55 316.925 1223.34 316.913C1223.13 316.901 1222.91 316.931 1222.71 317.002C1222.12 317.287 1221.6 317.704 1221.19 318.222L1219.5 320.101C1218.82 320.908 1217.92 321.488 1216.9 321.763C1216.05 321.966 1215.16 321.881 1214.36 321.521C1213.77 321.267 1213.25 320.861 1212.86 320.346C1212.5 319.853 1212.25 319.291 1212.11 318.695C1211.97 318.071 1211.94 317.426 1212.03 316.792C1212.13 316.092 1212.34 315.411 1212.63 314.769C1212.79 314.428 1212.96 314.097 1213.16 313.779C1213.36 313.452 1213.57 313.151 1213.78 312.874C1213.99 312.598 1214.2 312.345 1214.41 312.117C1214.58 311.929 1214.76 311.756 1214.96 311.6C1215.13 311.47 1215.33 311.376 1215.54 311.324C1215.73 311.295 1215.93 311.327 1216.1 311.415L1216.82 311.742C1217.14 311.885 1217.24 312.072 1217.14 312.303C1217.02 312.497 1216.87 312.666 1216.69 312.803C1215.87 313.54 1215.22 314.443 1214.78 315.451C1214.43 316.131 1214.26 316.892 1214.3 317.657C1214.33 317.952 1214.44 318.232 1214.62 318.467C1214.8 318.703 1215.04 318.883 1215.32 318.989C1215.51 319.084 1215.73 319.138 1215.95 319.145C1216.17 319.152 1216.39 319.114 1216.59 319.031C1217.21 318.719 1217.75 318.281 1218.19 317.746L1219.81 315.892C1220.46 315.09 1221.34 314.505 1222.33 314.215C1223.18 314.018 1224.06 314.118 1224.84 314.499C1225.45 314.768 1225.99 315.179 1226.41 315.698C1226.81 316.2 1227.1 316.784 1227.25 317.408C1227.41 318.086 1227.44 318.789 1227.33 319.477C1227.21 320.26 1226.97 321.021 1226.62 321.736Z" fill="#252F3E"/>
<path fill-rule="evenodd" clip-rule="evenodd" d="M1235.38 322.269C1236.79 328.92 1235.46 337.038 1232.65 343.21C1228.92 351.562 1222.2 358.215 1213.81 361.863C1213.18 362.137 1212.79 361.466 1213.37 361.047C1220.41 355.971 1226.01 349.142 1229.6 341.237C1232.25 335.321 1233.71 328.939 1233.89 322.458C1233.91 321.459 1235.14 321.163 1235.38 322.269Z" fill="#363636"/>
<path fill-rule="evenodd" clip-rule="evenodd" d="M1233.96 319.117C1232.85 319.381 1231.66 323.158 1231.12 324.847C1230.95 325.354 1230.5 325.245 1230.39 324.668C1229.68 320.908 1232.38 316.49 1233.3 316.259C1234.22 316.028 1238.59 318.843 1239.62 322.529C1239.78 323.096 1239.42 323.404 1239.05 323.015C1237.81 321.727 1235.06 318.852 1233.96 319.117Z" fill="#EBEBEB"/>
<path d="M1210.71 345.213C1211.15 345.435 1211.64 345.583 1212.13 345.653C1212.57 345.69 1213 345.69 1213.44 345.654C1213.57 345.635 1213.71 345.652 1213.83 345.702C1213.92 345.754 1214 345.825 1214.05 345.911C1214.11 345.997 1214.14 346.095 1214.15 346.196L1214.37 347.396C1214.4 347.552 1214.38 347.712 1214.33 347.859C1214.28 347.942 1214.23 348.016 1214.15 348.076C1214.08 348.137 1214 348.182 1213.91 348.21C1213.61 348.326 1213.29 348.402 1212.96 348.437C1212.64 348.473 1212.27 348.49 1211.84 348.487C1212.27 349.323 1212.49 350.244 1212.5 351.181C1212.52 352.118 1212.31 353.045 1211.91 353.891C1211.69 354.455 1211.36 354.97 1210.94 355.404C1210.52 355.838 1210.01 356.184 1209.45 356.42C1208.9 356.622 1208.31 356.708 1207.72 356.671C1207.13 356.634 1206.56 356.476 1206.04 356.206C1205.44 355.965 1204.91 355.594 1204.48 355.121C1204.05 354.647 1203.73 354.083 1203.55 353.469C1203.19 352.038 1203.38 350.528 1204.06 349.221C1204.31 348.686 1204.59 348.169 1204.91 347.673C1205.24 347.151 1205.61 346.621 1206.03 346.084L1204.91 345.579C1204.08 345.094 1203.1 344.957 1202.17 345.196C1201.31 345.653 1200.65 346.422 1200.34 347.345C1200.1 347.895 1199.92 348.472 1199.8 349.065C1199.68 349.681 1199.61 350.304 1199.58 350.93C1199.58 351.137 1199.57 351.344 1199.54 351.549L1199.43 351.786C1199.34 351.999 1199.13 352.033 1198.81 351.889L1198.1 351.562C1197.91 351.492 1197.74 351.371 1197.62 351.213C1197.53 351.035 1197.49 350.839 1197.49 350.64C1197.48 349.898 1197.54 349.157 1197.68 348.427C1197.83 347.567 1198.09 346.73 1198.46 345.937C1198.98 344.449 1200.07 343.228 1201.49 342.536C1202.19 342.315 1202.94 342.24 1203.68 342.315C1204.42 342.39 1205.13 342.614 1205.78 342.973L1210.71 345.213ZM1210.21 352.405C1210.45 351.868 1210.59 351.295 1210.64 350.711C1210.7 350.069 1210.59 349.423 1210.32 348.839C1210.16 348.485 1209.93 348.169 1209.64 347.915C1209.26 347.615 1208.84 347.366 1208.4 347.173L1207.76 346.883C1207.44 347.293 1207.14 347.719 1206.87 348.16C1206.6 348.604 1206.35 349.064 1206.13 349.539C1205.71 350.309 1205.57 351.2 1205.72 352.065C1205.82 352.398 1206 352.704 1206.23 352.96C1206.47 353.217 1206.76 353.419 1207.08 353.55C1207.36 353.703 1207.67 353.798 1207.99 353.828C1208.31 353.858 1208.63 353.822 1208.93 353.723C1209.22 353.598 1209.49 353.418 1209.71 353.191C1209.92 352.965 1210.1 352.698 1210.21 352.405ZM1217.38 340.998C1217.31 341.211 1217.16 341.393 1216.97 341.514C1216.73 341.602 1216.48 341.619 1216.23 341.564L1202.92 339.781C1202.69 339.76 1202.46 339.712 1202.24 339.64C1202.19 339.625 1202.14 339.597 1202.1 339.558C1202.06 339.52 1202.02 339.473 1202 339.42C1201.98 339.367 1201.98 339.31 1201.98 339.254C1201.99 339.198 1202.01 339.144 1202.04 339.097L1202.72 337.613C1202.79 337.396 1202.94 337.21 1203.13 337.088C1203.37 337.013 1203.62 337.002 1203.86 337.056L1215.03 339.071L1206.09 332.159C1205.88 332.022 1205.72 331.824 1205.64 331.594C1205.61 331.36 1205.66 331.123 1205.77 330.918L1206.33 329.698C1206.41 329.476 1206.55 329.286 1206.75 329.154C1206.98 329.07 1207.24 329.063 1207.47 329.132L1218.69 331.368L1209.75 324.135C1209.55 323.986 1209.39 323.786 1209.29 323.556C1209.26 323.329 1209.3 323.097 1209.42 322.898L1210.06 321.496C1210.07 321.442 1210.1 321.392 1210.14 321.351C1210.18 321.309 1210.22 321.277 1210.28 321.257C1210.33 321.237 1210.39 321.23 1210.44 321.237C1210.5 321.243 1210.55 321.262 1210.6 321.293C1210.68 321.321 1210.76 321.357 1210.84 321.4C1210.95 321.487 1211.06 321.58 1211.16 321.679L1221.21 330.644C1221.41 330.793 1221.57 330.997 1221.66 331.232C1221.69 331.456 1221.65 331.684 1221.54 331.881L1220.93 333.21C1220.86 333.435 1220.7 333.627 1220.5 333.749C1220.26 333.829 1220 333.833 1219.76 333.763L1208.94 331.687L1217.62 338.447C1217.83 338.584 1218 338.783 1218.09 339.016C1218.14 339.25 1218.09 339.491 1217.97 339.696L1217.38 340.998ZM1226.62 321.736C1226.27 322.521 1225.82 323.263 1225.3 323.947C1224.9 324.499 1224.43 324.993 1223.89 325.417C1223.75 325.551 1223.57 325.639 1223.37 325.669C1223.18 325.699 1222.97 325.671 1222.8 325.587L1222.03 325.24C1221.72 325.096 1221.61 324.909 1221.71 324.678C1221.76 324.582 1221.82 324.495 1221.9 324.421L1222.23 324.109C1222.71 323.682 1223.14 323.204 1223.51 322.683C1223.91 322.14 1224.25 321.558 1224.52 320.946C1224.92 320.196 1225.09 319.351 1225.03 318.506C1224.99 318.193 1224.88 317.895 1224.69 317.643C1224.5 317.391 1224.24 317.194 1223.95 317.073C1223.76 316.98 1223.55 316.925 1223.34 316.913C1223.13 316.901 1222.91 316.931 1222.71 317.002C1222.12 317.287 1221.6 317.704 1221.19 318.222L1219.5 320.101C1218.82 320.908 1217.92 321.488 1216.9 321.763C1216.05 321.966 1215.16 321.881 1214.36 321.521C1213.77 321.267 1213.25 320.861 1212.86 320.346C1212.5 319.853 1212.25 319.291 1212.11 318.695C1211.97 318.071 1211.94 317.426 1212.03 316.792C1212.13 316.092 1212.34 315.411 1212.63 314.769C1212.79 314.428 1212.96 314.097 1213.16 313.779C1213.36 313.452 1213.57 313.151 1213.78 312.874C1213.99 312.598 1214.2 312.345 1214.41 312.117C1214.58 311.929 1214.76 311.756 1214.96 311.6C1215.13 311.47 1215.33 311.376 1215.54 311.324C1215.73 311.295 1215.93 311.327 1216.1 311.415L1216.82 311.742C1217.14 311.885 1217.24 312.072 1217.14 312.303C1217.02 312.497 1216.87 312.666 1216.69 312.803C1215.87 313.54 1215.22 314.443 1214.78 315.451C1214.43 316.131 1214.26 316.892 1214.3 317.657C1214.33 317.952 1214.44 318.232 1214.62 318.467C1214.8 318.703 1215.04 318.883 1215.32 318.989C1215.51 319.084 1215.73 319.138 1215.95 319.145C1216.17 319.152 1216.39 319.114 1216.59 319.031C1217.21 318.719 1217.75 318.281 1218.19 317.746L1219.81 315.892C1220.46 315.09 1221.34 314.505 1222.33 314.215C1223.18 314.018 1224.06 314.118 1224.84 314.499C1225.45 314.768 1225.99 315.179 1226.41 315.698C1226.81 316.2 1227.1 316.784 1227.25 317.408C1227.41 318.086 1227.44 318.789 1227.33 319.477C1227.21 320.26 1226.97 321.021 1226.62 321.736Z" fill="#363636"/>
<path fill-rule="evenodd" clip-rule="evenodd" d="M1235.38 322.269C1236.79 328.92 1235.46 337.038 1232.65 343.21C1228.92 351.562 1222.2 358.215 1213.81 361.863C1213.18 362.137 1212.79 361.466 1213.37 361.047C1220.41 355.971 1226.01 349.142 1229.6 341.237C1232.25 335.321 1233.71 328.939 1233.89 322.458C1233.91 321.459 1235.14 321.163 1235.38 322.269Z" fill="#363636"/>
<path fill-rule="evenodd" clip-rule="evenodd" d="M1233.96 319.117C1232.85 319.381 1231.66 323.158 1231.12 324.847C1230.95 325.354 1230.5 325.245 1230.39 324.668C1229.68 320.908 1232.38 316.49 1233.3 316.259C1234.22 316.028 1238.59 318.843 1239.62 322.529C1239.78 323.096 1239.42 323.404 1239.05 323.015C1237.81 321.727 1235.06 318.852 1233.96 319.117Z" fill="#363636"/>
</g>
<g clip-path="url(#clip4_2_95)">
<path d="M1214.87 159.804C1217.23 155.825 1222.36 154.51 1226.34 156.868C1230.25 159.185 1231.59 164.187 1229.39 168.136C1229.72 168.332 1230.36 168.688 1230.84 168.724C1231.52 168.775 1233.42 167.794 1234.32 166.266L1234.65 165.717C1232.4 163.917 1231.76 160.687 1233.27 158.136C1234.78 155.594 1237.9 154.602 1240.55 155.692L1242.23 152.851C1240 151.047 1239.38 147.833 1240.88 145.292C1242.54 142.499 1246.14 141.576 1248.93 143.231C1251.72 144.885 1252.65 148.49 1250.99 151.283C1249.49 153.824 1246.36 154.816 1243.71 153.727L1242.03 156.567C1244.26 158.372 1244.89 161.585 1243.38 164.127C1241.88 166.664 1238.77 167.657 1236.11 166.578L1235.77 167.195C1235.17 168.19 1234.28 169.088 1233.2 169.595C1232.91 169.733 1232.61 169.863 1232.31 170.007L1232.64 170.202C1232.74 170.266 1234.33 171.231 1236.1 172.282L1236.47 172.504C1237.64 173.192 1238.84 173.892 1239.73 174.382C1241.68 175.457 1244.15 174.815 1245.53 173.31C1245.71 173.115 1245.94 172.734 1246.06 172.48C1243.81 170.679 1243.17 167.451 1244.68 164.899C1246.34 162.107 1249.94 161.184 1252.74 162.839C1255.53 164.493 1256.45 168.098 1254.79 170.891C1253.3 173.414 1250.21 174.41 1247.57 173.359L1247.31 173.796C1245.19 176.974 1240.96 177.231 1238.54 175.748C1235.49 173.881 1232.4 172.091 1229.32 170.269L1228.3 169.667C1225.69 172.585 1221.3 173.351 1217.8 171.279C1213.82 168.921 1212.51 163.784 1214.87 159.804ZM1246.16 165.775C1244.99 167.751 1245.64 170.303 1247.62 171.473C1249.59 172.644 1252.15 171.991 1253.32 170.015C1254.49 168.039 1253.84 165.488 1251.86 164.317C1249.88 163.146 1247.33 163.799 1246.16 165.775ZM1234.75 159.011C1233.58 160.988 1234.23 163.539 1236.2 164.71C1238.18 165.88 1240.73 165.227 1241.9 163.251C1243.07 161.275 1242.42 158.724 1240.45 157.553C1238.47 156.382 1235.92 157.035 1234.75 159.011ZM1242.36 146.167C1241.19 148.144 1241.84 150.695 1243.82 151.866C1245.79 153.036 1248.34 152.383 1249.51 150.407C1250.68 148.431 1250.03 145.88 1248.06 144.709C1246.08 143.538 1243.53 144.191 1242.36 146.167ZM1245.64 145.357C1246.09 145.242 1246.54 145.501 1246.67 145.94L1246.68 145.975L1247.58 149.469C1247.7 149.914 1247.44 150.368 1247 150.503L1246.97 150.513L1245.28 150.961C1244.82 151.082 1244.35 150.808 1244.23 150.35C1244.11 149.903 1244.37 149.445 1244.8 149.31L1244.84 149.3L1245.71 149.07L1245.02 146.403C1244.9 145.943 1245.18 145.475 1245.64 145.357ZM1237.98 158.253C1238.43 158.138 1238.88 158.398 1239.02 158.836L1239.03 158.871L1239.92 162.366C1240.04 162.811 1239.78 163.265 1239.35 163.4L1239.31 163.41L1237.62 163.857C1237.16 163.978 1236.69 163.705 1236.57 163.246C1236.45 162.799 1236.71 162.341 1237.15 162.206L1237.18 162.196L1238.05 161.967L1237.36 159.299C1237.24 158.84 1237.52 158.372 1237.98 158.253ZM1216.35 160.68C1214.47 163.843 1215.52 167.927 1218.68 169.801C1221.84 171.675 1225.92 170.629 1227.8 167.466C1229.67 164.303 1228.63 160.22 1225.47 158.346C1222.3 156.472 1218.22 157.517 1216.35 160.68ZM1218.3 162.641C1219.73 161.865 1221.19 161.12 1222.66 160.406C1223.89 159.808 1225.06 160.506 1225.12 161.885C1225.19 163.541 1225.22 165.197 1225.21 166.853C1225.2 168.201 1223.87 168.925 1222.68 168.26C1221.92 167.831 1221.17 167.37 1220.42 166.924C1219.68 166.491 1218.94 166.07 1218.22 165.618C1216.99 164.852 1217.02 163.324 1218.3 162.641ZM1219.02 164.142L1219.54 164.45C1219.8 164.603 1220.05 164.753 1220.3 164.902L1220.8 165.198L1221.54 165.635C1222.1 165.972 1222.66 166.303 1223.22 166.634C1223.49 166.789 1223.56 166.646 1223.55 166.403C1223.53 165.005 1223.5 163.608 1223.47 162.21C1223.47 161.979 1223.36 161.909 1223.16 162.013C1221.82 162.7 1220.48 163.389 1219.02 164.142Z" fill="#363636"/>
<path d="M1251.3 166.935C1251.55 166.527 1251.41 166 1251 165.758C1250.6 165.516 1250.07 165.651 1249.83 166.059C1249.59 166.467 1249.72 166.994 1250.13 167.236C1250.54 167.478 1251.06 167.343 1251.3 166.935Z" fill="#696968"/>
<path d="M1249.63 169.764C1249.87 169.356 1249.74 168.829 1249.33 168.587C1248.92 168.346 1248.39 168.48 1248.15 168.888C1247.91 169.297 1248.04 169.824 1248.45 170.065C1248.86 170.307 1249.39 170.172 1249.63 169.764Z" fill="#696968"/>
<path d="M1260.93 157.171C1259.76 159.147 1257.21 159.8 1255.23 158.629C1253.25 157.458 1252.6 154.907 1253.77 152.931C1254.94 150.955 1257.5 150.302 1259.47 151.473C1261.45 152.643 1262.1 155.195 1260.93 157.171ZM1252.3 152.055C1250.79 154.597 1251.42 157.811 1253.65 159.615L1253.16 160.442C1252.94 160.803 1253.1 161.292 1253.51 161.534C1253.92 161.776 1254.42 161.679 1254.64 161.318L1255.13 160.491C1257.78 161.58 1260.9 160.588 1262.41 158.047C1264.06 155.254 1263.14 151.649 1260.35 149.995C1257.55 148.34 1253.95 149.263 1252.3 152.055Z" fill="#696968"/>
</g>
<path d="M1147.5 102.5C1147.5 346.048 945.814 543.5 697 543.5C448.186 543.5 246.5 346.048 246.5 102.5C246.5 -141.048 448.186 -338.5 697 -338.5C945.814 -338.5 1147.5 -141.048 1147.5 102.5Z" stroke="#242323"/>
<g clip-path="url(#clip5_2_95)">
<path d="M404.405 454.203L412.262 426.376L438.628 436.425L425.971 462.419L414.032 461.295L404.405 454.203Z" fill="#363636"/>
<path d="M424.567 459.921L435.384 437.709L424.607 433.601L414.921 459.015L424.567 459.921Z" fill="#696968"/>
<path d="M423.338 436.898L415.072 433.747L412.158 444.068L419.544 446.883L420.802 443.583L416.435 441.918L417.421 438.424L422.09 440.203L423.349 436.902L423.338 436.898ZM417.539 452.144L417.524 452.143L414.226 449.749L414.996 447.028L411.68 445.764L410.168 451.123L416.217 455.569L416.234 455.57L417.539 452.144Z" fill="#EBEBEB"/>
<path d="M419.533 446.879L423.598 448.428L421.593 452.566L417.533 452.156L416.224 455.59L423.706 456.294L428.475 446.505L420.803 443.581L419.533 446.879ZM431.189 440.905L431.605 440.049L423.336 436.897L422.078 440.197L430.05 443.236L430.398 442.519L431.189 440.905Z" fill="white"/>
</g>
<g clip-path="url(#clip6_2_95)">
<path d="M535.044 533.651L524.608 526.276L532.416 496.38L560.797 506.56L547.822 534.597L535.044 533.651Z" fill="#363636"/>
<path d="M546.27 531.959L557.358 508L545.757 503.839L535.945 531.194L546.27 531.959Z" fill="#696968"/>
<path d="M533.634 511.617L532.678 515.284L540.629 518.136L541.903 514.583L533.634 511.617Z" fill="#EBEBEB"/>
<path d="M535.573 504.196L534.622 507.865L543.208 510.945L544.483 507.392L535.573 504.196Z" fill="#EBEBEB"/>
<path d="M538.593 523.811L538.576 523.809L535.003 521.321L535.766 518.397L532.199 517.118L530.696 522.875L537.25 527.506L537.268 527.507L538.593 523.811Z" fill="#EBEBEB"/>
<path d="M550.15 517.541L553.371 510.58L544.47 507.387L543.196 510.94L548.202 512.736L546.574 516.258L541.891 514.579L540.617 518.132L544.992 519.701L542.926 524.161L538.58 523.809L537.254 527.506L545.262 528.099L545.531 527.518L549.721 518.464L550.15 517.541Z" fill="white"/>
</g>
<g clip-path="url(#clip7_2_95)">
<path d="M667.504 526L699.381 528.804L696.578 560.681L664.701 557.877L667.504 526Z" fill="#363636"/>
<path d="M673.543 553.376L676.112 552.114C676.51 552.99 676.876 553.734 677.903 553.824C678.887 553.91 679.542 553.58 679.673 552.082L680.569 541.897L683.565 542.16L682.665 552.388C682.392 555.491 680.449 556.743 677.796 556.51C675.399 556.299 674.118 554.936 673.543 553.376M684.164 553.986L686.727 552.789C687.277 553.894 688.044 554.738 689.521 554.867C690.762 554.977 691.608 554.426 691.683 553.57C691.773 552.543 690.992 552.107 689.676 551.388L688.955 551.001C686.875 549.891 685.543 548.609 685.757 546.17C685.955 543.923 687.817 542.362 690.492 542.597C692.396 542.764 693.708 543.548 694.539 545.368L692.075 546.661C691.642 545.696 691.118 545.283 690.262 545.208C689.385 545.131 688.78 545.638 688.716 546.365C688.637 547.264 689.161 547.677 690.396 548.346L691.116 548.733C693.567 550.048 694.903 551.287 694.682 553.79C694.445 556.487 692.197 557.777 689.351 557.526C686.57 557.282 684.889 555.797 684.164 553.987" fill="#EBEBEB"/>
</g>
<g clip-path="url(#clip8_2_95)">
<path d="M821.118 531.96C822.59 531.058 823.052 529.134 822.15 527.662C821.248 526.191 819.324 525.729 817.853 526.631C816.381 527.532 815.919 529.456 816.821 530.928C817.723 532.399 819.647 532.861 821.118 531.96Z" fill="#696968"/>
<path d="M823.229 535.404C820.074 537.444 816.615 538.97 812.981 539.925C811.289 540.344 809.533 540.446 807.804 540.226C807.167 540.179 806.548 539.995 805.988 539.687C805.429 539.378 804.943 538.952 804.564 538.438C803.484 536.676 804.362 533.764 806.912 530.647C809.448 527.717 812.441 525.215 815.775 523.24C819.008 521.197 822.546 519.684 826.256 518.759C827.887 518.358 829.576 518.249 831.246 518.438C831.866 518.474 832.471 518.647 833.017 518.943C833.564 519.239 834.038 519.652 834.407 520.152C835.529 521.983 834.502 525.165 831.724 528.453C829.264 531.191 826.399 533.535 823.229 535.404ZM816.556 524.515C813.369 526.41 810.504 528.799 808.069 531.595C805.722 534.465 805.257 536.708 805.837 537.654C806.443 538.643 808.833 539.317 812.652 538.462C816.126 537.545 819.432 536.082 822.448 534.13C825.483 532.344 828.226 530.104 830.583 527.488C833.195 524.394 833.733 521.923 833.128 520.936C832.867 520.63 832.545 520.382 832.183 520.207C831.821 520.032 831.426 519.934 831.024 519.919C829.535 519.757 828.029 519.859 826.575 520.22C823.028 521.109 819.646 522.559 816.556 524.515Z" fill="#696968"/>
<path d="M821.575 546.294C821.085 546.61 820.519 546.791 819.937 546.817C817.871 546.872 815.787 544.657 814.36 540.891C813.088 537.23 812.417 533.388 812.372 529.512C812.217 525.692 812.674 521.871 813.725 518.195C814.193 516.582 814.942 515.064 815.939 513.712C816.281 513.193 816.733 512.756 817.263 512.431C817.794 512.106 818.389 511.902 819.006 511.833C821.154 511.775 823.396 514.254 824.858 518.303C826 521.802 826.6 525.456 826.635 529.137C826.825 532.889 826.419 536.648 825.431 540.273C824.948 541.948 824.16 543.519 823.105 544.907C822.677 545.452 822.159 545.921 821.575 546.294ZM813.864 529.469C813.913 533.176 814.552 536.852 815.757 540.358C817.072 543.826 818.782 545.348 819.896 545.319C821.052 545.29 822.835 543.554 824.003 539.818C824.942 536.35 825.325 532.755 825.139 529.167C825.109 525.646 824.54 522.151 823.451 518.802C822.075 514.991 820.203 513.288 819.047 513.319C818.651 513.393 818.275 513.548 817.942 513.774C817.61 514 817.328 514.293 817.114 514.634C816.231 515.845 815.569 517.203 815.158 518.644C814.157 522.162 813.724 525.817 813.876 529.471L813.864 529.469Z" fill="#696968"/>
<path d="M833.688 538.891C832.244 539.776 829.874 540.026 826.958 539.554C823.15 538.828 819.486 537.49 816.106 535.594C812.719 533.82 809.637 531.516 806.978 528.769C805.812 527.557 804.871 526.149 804.197 524.609C803.92 524.054 803.767 523.445 803.751 522.826C803.734 522.206 803.854 521.59 804.101 521.021C805.124 519.132 808.391 518.428 812.628 519.183C816.23 519.94 819.695 521.246 822.901 523.053C826.248 524.762 829.301 526.992 831.948 529.659C833.158 530.914 834.126 532.381 834.802 533.988C835.08 534.563 835.231 535.191 835.244 535.829C835.258 536.468 835.133 537.102 834.878 537.687C834.595 538.187 834.184 538.603 833.688 538.891ZM816.816 534.276C820.052 536.085 823.555 537.367 827.195 538.075C830.855 538.668 833.028 537.947 833.551 536.965C834.1 535.947 833.49 533.539 830.836 530.663C828.302 528.121 825.382 525.996 822.183 524.367C819.119 522.634 815.807 521.381 812.363 520.65C808.374 519.939 805.965 520.711 805.414 521.728C805.28 522.108 805.227 522.51 805.257 522.911C805.287 523.312 805.4 523.703 805.588 524.058C806.194 525.428 807.038 526.681 808.079 527.758C810.626 530.383 813.577 532.584 816.818 534.278L816.816 534.276Z" fill="#696968"/>
</g>
<g clip-path="url(#clip9_2_95)">
<path d="M944.426 454.19C944.366 454.223 944.174 454.331 943.999 454.424C939.995 456.612 937.068 460.559 936.099 465.091C935.558 467.611 935.625 470.174 936.297 472.628C936.53 473.486 936.619 473.73 937.094 474.823C937.569 475.916 937.687 476.148 938.155 476.903C941.349 482.066 947.284 484.991 953.348 484.394C954.434 484.286 955.529 484.059 956.726 483.689C957.191 483.544 959.113 482.708 959.537 482.466C961.413 481.391 962.87 480.178 964.151 478.621C964.347 478.382 964.381 478.327 964.334 478.313C964.304 478.306 962.601 477.331 960.551 476.148L956.826 473.999L951.994 470.926C949.336 469.237 947.154 467.859 947.142 467.864C947.13 467.866 947.959 469.805 948.98 472.168C950.769 476.305 950.838 476.473 950.829 476.593C950.816 476.766 950.783 476.848 950.69 476.964C950.618 477.05 950.542 477.093 950.109 477.281L949.612 477.497L949.444 477.471C949.334 477.454 949.24 477.41 949.161 477.346L949.045 477.243L946.549 471.489L944.055 465.731L944.096 465.58C944.115 465.5 944.179 465.38 944.232 465.313C944.325 465.204 944.368 465.179 944.864 464.963C945.449 464.708 945.557 464.689 945.781 464.789C945.844 464.816 948.479 466.522 951.64 468.583C954.801 470.643 959.121 473.454 961.242 474.834L965.096 477.344L965.18 477.215C965.927 476.085 966.61 474.642 967.045 473.259C967.974 470.321 968.04 467.202 967.237 464.256C967.004 463.399 966.915 463.155 966.439 462.062C965.964 460.969 965.846 460.737 965.378 459.982C962.184 454.818 956.25 451.894 950.185 452.491C949.115 452.595 948.026 452.819 946.852 453.18C946.564 453.271 944.654 454.064 944.426 454.19ZM954.293 460.453C954.46 460.462 954.63 460.546 954.73 460.666C954.785 460.731 955.484 462.323 957.042 465.92L959.276 471.081L957.76 470.083L956.242 469.085L954.611 465.336C953.557 462.912 952.976 461.544 952.965 461.471C952.941 461.29 952.986 461.12 953.092 460.986C953.183 460.875 953.224 460.85 953.674 460.654C954.098 460.47 954.176 460.443 954.293 460.453Z" fill="#363636"/>
<path d="M973.502 481.777C973.411 481.91 973.395 481.981 973.479 481.872C973.538 481.791 973.625 481.638 973.602 481.644C973.591 481.649 973.545 481.711 973.502 481.777ZM973.325 482.046C973.282 482.124 973.284 482.127 973.345 482.054C973.379 482.014 973.404 481.973 973.401 481.966C973.388 481.937 973.373 481.952 973.325 482.046ZM973.192 482.231C973.15 482.309 973.151 482.313 973.213 482.239C973.246 482.199 973.271 482.158 973.268 482.151C973.256 482.122 973.241 482.137 973.192 482.231ZM973.06 482.416C973.017 482.494 973.019 482.498 973.08 482.424C973.114 482.384 973.139 482.344 973.136 482.336C973.123 482.308 973.109 482.323 973.06 482.416ZM972.85 482.678C972.745 482.809 972.765 482.834 972.871 482.707C972.918 482.648 972.951 482.596 972.948 482.589C972.937 482.564 972.935 482.569 972.85 482.678Z" fill="black"/>
</g>
<g clip-path="url(#clip10_2_95)">
<path d="M1032.72 364.219L1055.57 341.817L1077.97 364.669L1055.12 387.07L1032.72 364.219Z" fill="#363636"/>
<path d="M1051.98 361.925L1053.08 360.85L1054.94 362.743L1051.97 365.648L1060.23 374.067L1060.17 374.165C1060.09 374.299 1058.68 375.682 1058.34 375.947L1058.08 376.164L1049.83 367.748L1046.87 370.653L1045.01 368.761L1045.94 367.829C1046.45 367.318 1047.77 366.023 1048.88 364.952C1049.98 363.881 1051.38 362.52 1051.98 361.925ZM1069.58 363.143C1069.6 364.03 1069.38 364.746 1068.81 365.72C1068.56 366.145 1068.51 366.205 1067.74 366.95C1066.98 367.696 1066.91 367.755 1066.45 368.023C1065.25 368.718 1064 368.995 1062.8 368.832C1062.46 368.786 1061.83 368.627 1061.78 368.577C1061.76 368.563 1061.77 368.496 1061.79 368.429C1061.82 368.362 1061.85 368.207 1061.89 368.083C1061.92 367.96 1061.98 367.734 1062.03 367.59C1062.07 367.445 1062.19 367.008 1062.29 366.624C1062.39 366.239 1062.5 365.904 1062.52 365.88C1062.55 365.855 1062.64 365.86 1062.74 365.886C1063.3 366.036 1064.26 366.007 1064.76 365.817C1065.07 365.697 1065.66 365.328 1065.89 365.1C1066.1 364.89 1066.4 364.412 1066.52 364.109C1066.64 363.785 1066.66 363.57 1066.59 363.23C1066.54 362.992 1066.51 362.943 1066.23 362.668C1065.98 362.41 1065.9 362.353 1065.71 362.305C1065.19 362.173 1064.75 362.267 1063.17 362.86C1061.54 363.469 1060.74 363.67 1059.93 363.673C1059.33 363.674 1059.19 363.651 1058.63 363.465C1057.9 363.228 1057.72 363.103 1057.01 362.388C1056.51 361.889 1056.36 361.714 1056.25 361.49C1056.07 361.159 1055.83 360.425 1055.82 360.192C1055.78 359.7 1055.78 359.537 1055.82 359.247C1055.91 358.372 1056.41 357.365 1057.11 356.63C1057.19 356.549 1057.48 356.297 1057.75 356.067C1058.53 355.413 1059.21 355.105 1060.06 355.018C1060.7 354.951 1061.9 355.086 1061.94 355.228C1061.95 355.317 1061.46 357.663 1061.4 357.783C1061.36 357.856 1061.3 357.874 1061.13 357.858C1060.07 357.752 1059.75 357.819 1059.25 358.253C1058.9 358.56 1058.76 358.775 1058.68 359.145C1058.6 359.533 1058.72 359.884 1059.04 360.216C1059.52 360.699 1059.93 360.745 1060.95 360.412C1061.6 360.196 1062.16 360.004 1062.19 359.976C1062.23 359.934 1063.6 359.491 1063.97 359.399C1065.73 358.961 1066.84 359.187 1068.09 360.229C1069.03 361.016 1069.57 362.054 1069.58 363.143Z" fill="#EBEBEB"/>
</g>
<g clip-path="url(#clip11_2_95)">
<path d="M1112.26 225.327C1112.23 224.325 1112.77 223.326 1113.62 222.799C1117.87 220.126 1122.12 217.449 1126.38 214.776C1127.17 214.273 1128.24 214.224 1129.07 214.682L1142.15 221.747C1143.02 222.21 1143.56 223.188 1143.55 224.166C1143.64 229.17 1143.73 234.172 1143.82 239.175C1143.85 240.198 1143.27 241.196 1142.37 241.692C1141.09 242.482 1139.8 243.275 1138.51 244.066C1138.25 244.225 1137.99 244.43 1137.67 244.473C1137.56 244.219 1137.67 243.944 1137.7 243.684C1137.81 243.121 1137.8 242.548 1137.8 241.979C1137.79 241.826 1137.89 241.706 1138.01 241.636C1139.11 240.957 1140.22 240.296 1141.31 239.611C1141.54 239.466 1141.5 239.166 1141.49 238.932C1141.4 234.019 1141.31 229.106 1141.22 224.194C1141.23 224.018 1141.12 223.861 1140.96 223.79C1136.65 221.457 1132.33 219.128 1128.02 216.796C1127.85 216.687 1127.64 216.701 1127.48 216.82C1123.27 219.479 1119.05 222.135 1114.83 224.794C1114.75 224.835 1114.68 224.9 1114.64 224.981C1114.59 225.061 1114.58 225.153 1114.59 225.243C1114.68 230.228 1114.77 235.213 1114.86 240.197C1114.85 240.391 1114.95 240.581 1115.13 240.656C1119.45 242.986 1123.76 245.318 1128.08 247.649C1128.15 247.696 1128.23 247.72 1128.32 247.718C1128.4 247.716 1128.48 247.688 1128.55 247.637C1129.68 246.93 1130.81 246.219 1131.93 245.51C1132.55 245.102 1133.12 244.495 1133.22 243.734C1133.33 243.067 1132.97 242.367 1132.37 242.057C1128.08 239.735 1123.79 237.425 1119.5 235.102C1119.3 235.013 1119.24 234.747 1119.36 234.572C1119.62 234.08 1119.88 233.588 1120.16 233.102C1120.26 232.895 1120.54 232.865 1120.72 232.994C1125.04 235.328 1129.36 237.652 1133.67 239.992C1134.82 240.613 1135.82 241.761 1135.81 243.13C1135.78 244.808 1134.76 246.351 1133.41 247.294C1132.24 248.113 1131 248.827 1129.81 249.604C1129 250.156 1127.89 250.238 1127.02 249.764L1113.94 242.699C1113.08 242.247 1112.54 241.301 1112.54 240.338C1112.44 235.334 1112.35 230.33 1112.26 225.327Z" fill="#363636"/>
<path d="M1123.12 226.876C1123.92 225.145 1124.93 223.378 1126.57 222.318C1127.83 221.494 1129.5 221.564 1130.81 222.242C1130.96 222.369 1130.96 222.604 1130.86 222.764C1130.6 223.249 1130.34 223.738 1130.07 224.218C1129.97 224.428 1129.71 224.445 1129.52 224.373C1128.82 224.178 1128.03 224.184 1127.41 224.606C1126.48 225.259 1125.94 226.309 1125.43 227.289C1125.08 228.022 1124.73 228.822 1124.82 229.652C1124.89 230.286 1125.45 230.773 1126.06 230.886C1126.51 230.93 1126.86 230.567 1127.16 230.277C1128.78 228.546 1129.88 226.382 1131.64 224.78C1132.36 224.114 1133.35 223.61 1134.35 223.793C1135.7 224.047 1136.99 224.949 1137.47 226.264C1137.87 227.337 1137.76 228.525 1137.47 229.609C1137.06 231.044 1136.35 232.377 1135.52 233.609C1134.72 234.756 1133.71 235.856 1132.37 236.35C1131.23 236.778 1129.93 236.583 1128.89 235.974C1128.72 235.869 1128.69 235.624 1128.8 235.462C1129.06 234.971 1129.32 234.482 1129.59 233.996C1129.68 233.793 1129.93 233.74 1130.12 233.829C1130.76 234.058 1131.5 234.171 1132.12 233.845C1133.3 233.198 1133.93 231.928 1134.56 230.8C1135.03 229.836 1135.59 228.771 1135.38 227.666C1135.24 227.069 1134.71 226.628 1134.14 226.461C1133.65 226.347 1133.2 226.69 1132.86 227.006C1131.16 228.656 1130.22 230.939 1128.44 232.525C1127.73 233.172 1126.78 233.657 1125.79 233.521C1124.39 233.321 1123.06 232.348 1122.66 230.964C1122.25 229.605 1122.59 228.15 1123.12 226.875L1123.12 226.876Z" fill="#363636"/>
</g>
<path d="M1132.97 79.5808L1134.81 79.6512C1135.17 79.6341 1135.51 79.5855 1135.84 79.4952C1136.83 79.2276 1137.84 79.0272 1138.86 78.8953C1141.26 78.5968 1143.61 78.8188 1145.97 79.3734C1147.4 79.719 1148.78 80.2505 1150.05 80.9744C1153.88 83.1217 1156.38 86.3181 1157.56 90.5151C1157.74 91.1914 1157.86 91.8812 1157.93 92.5778C1157.78 92.8374 1157.51 92.8443 1157.26 92.8445C1156.81 92.8413 1156.36 92.7536 1155.94 92.5857C1155.43 92.4106 1154.94 92.2039 1154.48 91.8982L1154.26 91.7735C1154.21 91.768 1133.02 79.7348 1132.97 79.5808Z" fill="#363636"/>
<path d="M1132.92 79.5537C1132.84 79.5486 1132.87 79.6064 1132.88 79.6545C1133.2 79.8184 1133.41 80.0848 1133.57 80.4046C1133.73 80.74 1133.78 81.0998 1133.85 81.4692C1134.24 83.5144 1135.04 85.4127 1136.13 87.1959C1137.61 89.5828 1139.56 91.5065 1141.87 93.0797C1142.7 93.6634 1145.98 95.1019 1147.03 95.3439C1149.82 95.9662 1152.57 95.7698 1155.3 95.0243C1155.96 94.8364 1156.61 94.6013 1157.25 94.3417C1157.33 94.204 1157.22 94.1176 1157.15 94.0329C1156.99 93.8588 1156.81 93.6966 1156.63 93.5477L1154.52 91.9052L1132.92 79.5537Z" fill="#696968"/>
<path d="M1158.63 93.5248C1158.3 93.2897 1158.1 92.9517 1157.92 92.5993C1157.74 92.739 1157.5 92.7874 1157.27 92.7958C1157.06 92.7948 1156.84 92.7727 1156.63 92.7301C1155.87 92.5701 1155.17 92.2234 1154.48 91.9026L1154.08 91.6711C1154.1 91.7832 1154.61 92.1015 1154.68 92.1464C1155.35 92.595 1155.99 93.0887 1156.59 93.624C1156.84 93.8301 1157.09 94.0207 1157.24 94.3325C1157.27 94.3504 1157.3 94.3683 1157.35 94.3799C1158.32 94.5766 1159.19 94.982 1160.06 95.4255L1160.37 95.6043C1160.74 95.8178 1160.65 95.7878 1160.95 95.555C1161.07 95.4587 1161.16 95.3311 1161.33 95.2614C1161.38 95.1693 1161.31 95.11 1161.25 95.0742L1160.72 94.826L1159.31 94.0065C1159.06 93.8784 1158.84 93.6907 1158.63 93.5262L1158.63 93.5248Z" fill="#C2BFBF"/>
<defs>
<clipPath id="clip0_2_95">
<rect width="40" height="40" fill="white" transform="translate(567.683 623.426) rotate(12.3391)"/>
</clipPath>
<clipPath id="clip1_2_95">
<rect width="40" height="40" fill="white" transform="translate(741 664.5)"/>
</clipPath>
<clipPath id="clip2_2_95">
<rect width="40" height="38.128" fill="white" transform="translate(1086.66 516.29) rotate(-36.4183)"/>
</clipPath>
<clipPath id="clip3_2_95">
<rect width="50" height="30" fill="white" transform="translate(1195 353.547) rotate(-65.5443)"/>
</clipPath>
<clipPath id="clip4_2_95">
<rect width="40" height="40" fill="white" transform="translate(1210.6 167.01) rotate(-59.3493)"/>
</clipPath>
<clipPath id="clip5_2_95">
<rect width="32" height="32" fill="white" transform="translate(410.495 425.702) rotate(20.8636)"/>
</clipPath>
<clipPath id="clip6_2_95">
<rect width="32" height="34.6667" fill="white" transform="translate(532.489 496.02) rotate(19.7316)"/>
</clipPath>
<clipPath id="clip7_2_95">
<rect width="32" height="32" fill="white" transform="translate(667.504 526) rotate(5.0262)"/>
</clipPath>
<clipPath id="clip8_2_95">
<rect width="40" height="40" fill="white" transform="translate(792 522.719) rotate(-31.4973)"/>
</clipPath>
<clipPath id="clip9_2_95">
<rect width="40" height="40" fill="white" transform="translate(930.683 460.135) rotate(-23.5025)"/>
</clipPath>
<clipPath id="clip10_2_95">
<rect width="32" height="32" fill="white" transform="translate(1032.72 364.219) rotate(-44.4305)"/>
</clipPath>
<clipPath id="clip11_2_95">
<rect width="32" height="35.2423" fill="white" transform="translate(1108.25 219.017) rotate(-14.0567)"/>
</clipPath>
</defs>
</svg>
