<svg width="45" height="44" viewBox="0 0 45 44" fill="none" xmlns="http://www.w3.org/2000/svg">
<path fill-rule="evenodd" clip-rule="evenodd" d="M22.7154 0.972412C10.7234 0.972412 0.998047 10.6965 0.998047 22.6925C0.998047 32.2871 7.22074 40.4284 15.8514 43.3018C16.9381 43.5006 17.3341 42.8298 17.3341 42.2538C17.3341 41.7378 17.3152 40.3724 17.3038 38.5604C11.2625 39.8724 9.98784 35.6485 9.98784 35.6485C8.99984 33.1392 7.57582 32.4712 7.57582 32.4712C5.60382 31.1245 7.72511 31.1511 7.72511 31.1511C9.90511 31.3045 11.0518 33.3898 11.0518 33.3898C12.9891 36.7084 16.1358 35.7498 17.3731 35.1938C17.5704 33.7912 18.1318 32.8338 18.7518 32.2911C13.9291 31.7418 8.85844 29.8791 8.85844 21.5565C8.85844 19.1845 9.70513 17.2471 11.0945 15.7285C10.8703 15.1791 10.1251 12.9711 11.308 9.98039C11.308 9.98039 13.1306 9.39644 17.28 12.2058C19.012 11.7244 20.8707 11.4844 22.7173 11.4751C24.5626 11.4827 26.42 11.7246 28.1546 12.2058C32.3013 9.39644 34.1213 9.98039 34.1213 9.98039C35.3066 12.9711 34.5613 15.1791 34.3386 15.7285C35.7306 17.2471 36.5706 19.1845 36.5706 21.5565C36.5706 29.9005 31.492 31.7364 26.6546 32.2737C27.4333 32.9444 28.128 34.2698 28.128 36.2965C28.128 39.1991 28.1015 41.5418 28.1015 42.2538C28.1015 42.8351 28.4935 43.5112 29.5948 43.2991C38.2188 40.4205 44.4362 32.2858 44.4362 22.6925C44.4362 10.6965 34.7108 0.972412 22.7148 0.972412" fill="white"/>
</svg>
