<svg width="24" height="24" viewBox="0 0 24 24" fill="none" xmlns="http://www.w3.org/2000/svg">
<path fill-rule="evenodd" clip-rule="evenodd" d="M13.5331 0.861296C12.5298 0.583751 11.4701 0.583751 10.4668 0.861296C9.86123 1.02883 9.31336 1.32485 8.70813 1.74028C8.11588 2.1468 7.42919 2.69616 6.5568 3.39407L6.53387 3.41241L4.53388 5.01241L4.44397 5.08432L4.44396 5.08433C3.42723 5.89749 2.80144 6.39799 2.34446 7.0284C1.94019 7.5861 1.63941 8.21191 1.45647 8.87599C1.24967 9.62665 1.24978 10.428 1.24995 11.7299L1.24996 11.845V17C1.24996 20.1756 3.82432 22.75 6.99996 22.75C8.51874 22.75 9.74996 21.5188 9.74996 20V16C9.74996 14.7573 10.7573 13.75 12 13.75C13.2426 13.75 14.25 14.7573 14.25 16V20C14.25 21.5188 15.4812 22.75 17 22.75C20.1756 22.75 22.75 20.1756 22.75 17V11.845L22.75 11.7299C22.7501 10.428 22.7502 9.62665 22.5435 8.87599C22.3605 8.21191 22.0597 7.5861 21.6555 7.0284C21.1985 6.39799 20.5727 5.89748 19.5559 5.08431L19.466 5.01241L17.466 3.41241L17.4431 3.39409C16.5707 2.69616 15.884 2.1468 15.2918 1.74028C14.6866 1.32485 14.1387 1.02883 13.5331 0.861296Z" fill="#363636"/>
</svg>
