<svg width="50" height="50" viewBox="0 0 50 50" fill="none" xmlns="http://www.w3.org/2000/svg">
<path d="M44.6875 13.6914L36.6309 13.3008L36.1621 8.04685C36.0645 6.94334 35.0782 6.17185 33.9258 6.25974L5.02933 8.63279C3.87698 8.73045 3.04691 9.65818 3.1348 10.7519L5.20511 33.7793C5.30277 34.8828 6.29886 35.6543 7.44144 35.5664L8.90628 35.4492L8.67191 39.9219C8.61331 41.1523 9.57034 42.1484 10.8594 42.2168L43.0957 43.75C44.3848 43.8086 45.4492 42.9101 45.5176 41.6797L46.875 15.9668C46.9336 14.7461 45.9668 13.75 44.6875 13.6914ZM10.0293 14.209L9.33597 27.373L7.62698 29.7851L6.05472 12.4023V12.3535V12.3047C6.15237 11.8164 6.48441 11.4258 6.99222 11.3867L32.4805 9.29685C32.9883 9.25779 33.4278 9.58982 33.5059 10.0683C33.5059 10.0879 33.5352 10.0879 33.5352 10.1074C33.5352 10.1172 33.5645 10.1269 33.5645 10.1465L33.8282 13.1543L12.4414 12.1289C11.1524 12.0898 10.0879 12.9883 10.0293 14.209ZM42.6465 37.3437L34.3653 27.6269L30.7129 30.9765L23.9551 23.0859L11.9727 35.8496L12.9883 16.4062V16.3672C13.086 15.8398 13.5938 15.459 14.1504 15.4883L42.5879 16.8554C43.1543 16.8847 43.5938 17.3144 43.6035 17.8515C43.6035 17.8711 43.6328 17.8808 43.6328 17.9004L42.6465 37.3437Z" fill="#363636" fill-opacity="0.7"/>
<path d="M37.5 25C39.2188 25 40.625 23.5938 40.625 21.875C40.625 20.1562 39.2285 18.75 37.5 18.75C35.7812 18.75 34.375 20.1465 34.375 21.875C34.375 23.6035 35.7715 25 37.5 25Z" fill="#363636" fill-opacity="0.7"/>
</svg>
