<svg width="720" height="1024" viewBox="0 0 720 1024" fill="none" xmlns="http://www.w3.org/2000/svg">
<rect width="720" height="1024" fill="url(#paint0_linear_40_371)"/>
<circle cx="33" cy="39" r="5" fill="#280771"/>
<circle cx="53.5" cy="39" r="7.5" fill="#280771"/>
<circle cx="79" cy="39" r="10" fill="#280771"/>
<circle cx="63.5" cy="71.5" r="12.5" fill="#280771"/>
<circle cx="94" cy="71.5" r="10" fill="#280771"/>
<circle cx="119.5" cy="71.5" r="7.5" fill="#280771"/>
<circle cx="140" cy="71.5" r="5" fill="#280771"/>
<circle cx="694" cy="1001" r="74.5" stroke="#280771"/>
<circle cx="694" cy="59" r="159.5" stroke="#280771"/>
<circle cx="757" cy="923" r="74.5" stroke="#280771"/>
<circle cx="143" cy="346" r="45" fill="white"/>
<g clip-path="url(#clip0_40_371)">
<path d="M127.415 367.217L123.803 326.716H163.482L159.868 367.211L143.618 371.714L127.415 367.217Z" fill="#E44D26"/>
<path d="M156.773 364.632L159.863 330.027H143.643V368.273L156.773 364.632Z" fill="#F16529"/>
<path d="M143.626 334.994H131.186L132.526 350.016H143.643V345.049H137.07L136.616 339.963H143.643V334.994H143.626ZM143.643 357.933L143.622 357.939L138.09 356.445L137.738 352.484H132.749L133.445 360.283L143.62 363.095L143.643 363.088V357.933Z" fill="#EBEBEB"/>
<path d="M143.626 350.016H149.743L149.181 356.456L143.64 357.951V363.119L153.824 360.297L155.188 345.046H143.643L143.626 350.016ZM155.95 336.327L156.068 334.994H143.623V339.961H155.621L155.72 338.845L155.95 336.327Z" fill="white"/>
</g>
<circle cx="253" cy="286" r="35" fill="white"/>
<g clip-path="url(#clip1_40_371)">
<path d="M254.526 307.799L241.059 304.06L238.057 270.398H271.036L268.031 304.055L254.526 307.799Z" fill="#264DE4"/>
<path d="M265.459 301.912L268.027 273.15H254.547V304.937L265.459 301.912Z" fill="#2965F1"/>
<path d="M244.938 285.635L245.308 289.764H254.547V285.635H244.938Z" fill="#EBEBEB"/>
<path d="M244.194 277.279L244.57 281.407H254.547V277.279H244.194Z" fill="#EBEBEB"/>
<path d="M254.547 296.357L254.529 296.362L249.931 295.121L249.637 291.828H245.492L246.071 298.31L254.528 300.658L254.547 300.653V296.357Z" fill="#EBEBEB"/>
<path d="M264.129 285.635L264.874 277.279H254.532V281.407H260.35L259.974 285.635H254.532V289.764H259.616L259.137 295.118L254.532 296.361V300.656L262.996 298.31L263.058 297.613L264.028 286.744L264.129 285.635Z" fill="white"/>
</g>
<circle cx="194" cy="839" r="60" fill="white"/>
<path d="M194 843.639C196.589 843.639 198.688 841.54 198.688 838.951C198.688 836.362 196.589 834.264 194 834.264C191.411 834.264 189.312 836.362 189.312 838.951C189.312 841.54 191.411 843.639 194 843.639Z" fill="#00D8FF"/>
<path d="M194 849.699C188.366 849.835 182.746 849.076 177.35 847.449C174.857 846.659 172.533 845.414 170.493 843.778C169.715 843.218 169.067 842.498 168.593 841.665C168.12 840.832 167.832 839.906 167.75 838.951C167.75 835.852 171.155 832.814 176.859 830.827C182.399 829.066 188.187 828.212 194 828.299C199.735 828.219 205.446 829.057 210.916 830.782C213.317 831.547 215.563 832.732 217.55 834.281C218.315 834.814 218.953 835.508 219.42 836.315C219.887 837.123 220.17 838.022 220.25 838.951C220.25 842.173 216.444 845.437 210.312 847.466C205.021 849.039 199.52 849.793 194 849.699ZM194 830.542C188.439 830.468 182.902 831.279 177.596 832.946C172.346 834.778 169.993 837.283 169.993 838.946C169.993 840.686 172.522 843.421 178.076 845.321C183.238 846.869 188.612 847.59 194 847.456C199.281 847.551 204.545 846.836 209.609 845.338C215.375 843.427 218 840.688 218 838.951C217.905 838.355 217.688 837.786 217.362 837.278C217.036 836.77 216.609 836.336 216.106 836.002C214.328 834.628 212.322 833.578 210.179 832.901C204.946 831.258 199.484 830.461 194 830.542Z" fill="#00D8FF"/>
<path d="M183.35 862.331C182.475 862.351 181.611 862.138 180.845 861.716C178.16 860.167 177.23 855.701 178.357 849.766C179.599 844.087 181.752 838.646 184.732 833.654C187.527 828.646 191.105 824.118 195.331 820.241C197.193 818.543 199.342 817.189 201.676 816.241C202.521 815.846 203.442 815.64 204.374 815.64C205.307 815.64 206.228 815.846 207.073 816.241C209.864 817.85 210.789 822.778 209.486 829.102C208.205 834.473 206.108 839.616 203.268 844.351C200.571 849.3 197.106 853.789 193.001 857.651C191.071 859.415 188.831 860.806 186.395 861.755C185.42 862.117 184.39 862.312 183.35 862.331ZM186.674 834.768C183.832 839.548 181.769 844.75 180.562 850.179C179.525 855.644 180.521 858.931 181.968 859.768C183.468 860.636 187.109 859.813 191.531 855.95C195.449 852.251 198.757 847.954 201.331 843.219C204.052 838.692 206.063 833.775 207.296 828.639C208.522 822.686 207.463 819.041 205.959 818.174C205.395 817.958 204.793 817.862 204.19 817.89C203.587 817.919 202.997 818.073 202.456 818.341C200.378 819.199 198.468 820.416 196.813 821.938C192.775 825.651 189.357 829.987 186.688 834.779L186.674 834.768Z" fill="#00D8FF"/>
<path d="M204.644 862.355C202.104 862.355 198.877 860.817 195.517 857.928C191.217 854.016 187.578 849.433 184.741 844.359C181.799 839.436 179.663 834.074 178.415 828.476C177.874 826.013 177.773 823.473 178.119 820.976C178.199 820.049 178.481 819.151 178.945 818.345C179.41 817.54 180.046 816.846 180.807 816.312C183.596 814.698 188.326 816.357 193.154 820.644C197.168 824.435 200.576 828.82 203.261 833.645C206.201 838.453 208.359 843.698 209.654 849.183C210.219 851.736 210.306 854.372 209.911 856.957C209.817 857.91 209.518 858.832 209.035 859.659C208.551 860.486 207.895 861.198 207.11 861.747C206.357 862.165 205.506 862.375 204.644 862.355ZM186.682 843.23C189.403 848.08 192.879 852.465 196.979 856.222C201.196 859.85 204.541 860.63 205.979 859.784C207.479 858.912 208.586 855.354 207.446 849.596C206.197 844.359 204.127 839.352 201.312 834.762C198.751 830.145 195.498 825.946 191.666 822.312C187.121 818.277 183.434 817.376 181.932 818.246C181.464 818.626 181.08 819.099 180.804 819.636C180.528 820.172 180.367 820.76 180.329 821.362C180.031 823.59 180.128 825.852 180.616 828.046C181.817 833.4 183.865 838.527 186.684 843.234L186.682 843.23Z" fill="#00D8FF"/>
<circle cx="578" cy="201" r="50" fill="white"/>
<g clip-path="url(#clip2_40_371)">
<path d="M557.187 226.263L553 175.096L603 175.198L598.573 226.263L578.189 232.165L557.187 226.263Z" fill="#E9CA32"/>
<path d="M578.189 227.223V179.969L598.779 180.037L595.107 222.316L578.189 227.223Z" fill="#FFDE25"/>
<path d="M575.984 185.58H570.54V217.031L566.306 216.225V211.991L561.266 211.184V220.66L575.984 224.491V185.58ZM580.067 185.58H595.137L594.129 191.608H585.82V201.5H594.129L593.121 221.467L580.067 224.491V218.241L588.887 215.217L589.396 206.95L580.067 208.301V185.58Z" fill="white"/>
</g>
<circle cx="492" cy="753" r="50" fill="white"/>
<path d="M514.818 737.219L494.126 725.217C492.822 724.474 491.115 724.474 489.801 725.217L468.947 737.219C467.602 737.993 466.688 739.448 466.688 741.003V764.976C466.688 766.532 467.621 767.987 468.967 768.765L474.465 771.9C477.102 773.199 477.833 773.199 479.033 773.199C482.94 773.199 484.968 770.837 484.968 766.718V743.05C484.969 742.716 485.177 742.219 484.849 742.219H482.213C481.88 742.219 481.219 742.716 481.219 743.05V766.717C481.219 768.543 479.524 770.361 476.437 768.817L470.754 765.53C470.557 765.422 470.438 765.205 470.438 764.976V741.003C470.438 740.777 470.655 740.55 470.855 740.435L491.657 728.453C491.759 728.399 491.873 728.37 491.989 728.37C492.105 728.37 492.219 728.399 492.321 728.453L512.928 740.432C513.126 740.55 513.094 740.77 513.094 741.003V764.976C513.094 765.205 513.137 765.428 512.943 765.538L492.255 777.526C492.078 777.633 491.848 777.633 491.653 777.526L486.348 774.363C486.188 774.27 485.996 774.237 485.842 774.323C484.368 775.158 484.094 775.269 482.711 775.749C482.37 775.868 481.868 776.073 482.903 776.653L489.839 780.757C490.501 781.139 491.253 781.341 492.017 781.341C492.785 781.342 493.54 781.14 494.205 780.757L514.818 768.765C516.164 767.981 516.844 766.532 516.844 764.976V741.003C516.844 739.448 516.164 737.997 514.818 737.219ZM498.435 761.177C492.937 761.177 491.727 759.661 491.324 756.928C491.276 756.633 491.026 756.281 490.726 756.281H488.04C487.708 756.281 487.44 756.684 487.44 757.015C487.44 760.515 489.344 764.755 498.435 764.755C505.015 764.755 508.788 762.198 508.788 757.673C508.788 753.186 505.757 752.009 499.375 751.164C492.924 750.311 492.269 749.88 492.269 748.369C492.269 747.123 492.824 745.462 497.6 745.462C501.868 745.462 503.441 746.378 504.088 749.254C504.144 749.525 504.391 749.719 504.67 749.719H507.367C507.533 749.719 507.691 749.652 507.807 749.533C507.92 749.406 507.979 749.246 507.965 749.074C507.546 744.12 504.255 741.811 497.6 741.811C491.678 741.811 488.147 744.312 488.147 748.503C488.147 753.049 491.661 754.305 497.345 754.867C504.144 755.534 504.673 756.527 504.673 757.865C504.673 760.188 502.808 761.177 498.435 761.177Z" fill="#83CD29"/>
<defs>
<linearGradient id="paint0_linear_40_371" x1="664" y1="-6.21047e-06" x2="7.84815e-06" y2="1049" gradientUnits="userSpaceOnUse">
<stop stop-color="#633BBC"/>
<stop offset="1" stop-color="#5103FF"/>
</linearGradient>
<clipPath id="clip0_40_371">
<rect width="45" height="45" fill="white" transform="translate(121.143 326.714)"/>
</clipPath>
<clipPath id="clip1_40_371">
<rect width="35" height="37.9167" fill="white" transform="translate(238 270)"/>
</clipPath>
<clipPath id="clip2_40_371">
<rect width="50" height="57.2607" fill="white" transform="translate(553 175)"/>
</clipPath>
</defs>
</svg>
