<svg width="118" height="32" viewBox="0 0 118 32" fill="none" xmlns="http://www.w3.org/2000/svg">
<path d="M16 22C17.5913 22 19.1174 21.3679 20.2426 20.2426C21.3679 19.1174 22 17.5913 22 16V8C22 6.4087 21.3679 4.88258 20.2426 3.75736C19.1174 2.63214 17.5913 2 16 2C14.4087 2 12.8826 2.63214 11.7574 3.75736C10.6321 4.88258 10 6.4087 10 8V16C10 17.5913 10.6321 19.1174 11.7574 20.2426C12.8826 21.3679 14.4087 22 16 22Z" fill="#633BBC"/>
<path d="M25.05 16.0125C24.7884 15.9843 24.5262 16.0604 24.3203 16.2241C24.1144 16.3879 23.9814 16.6263 23.95 16.8875C23.7304 18.8423 22.7983 20.6477 21.3318 21.9587C19.8652 23.2697 17.9671 23.9945 16 23.9945C14.0329 23.9945 12.1347 23.2697 10.6682 21.9587C9.20167 20.6477 8.26957 18.8423 8.04999 16.8875C8.01861 16.6263 7.88555 16.3879 7.67964 16.2241C7.47374 16.0604 7.21158 15.9843 6.94998 16.0125C6.81887 16.0249 6.69157 16.0634 6.57556 16.1258C6.45956 16.1881 6.35719 16.273 6.2745 16.3755C6.1918 16.478 6.13044 16.596 6.09403 16.7226C6.05762 16.8492 6.0469 16.9817 6.06249 17.1125C6.31824 19.3814 7.34558 21.4936 8.97256 23.0955C10.5995 24.6975 12.7274 25.692 15 25.9125V29C15 29.2652 15.1053 29.5196 15.2929 29.7071C15.4804 29.8946 15.7348 30 16 30C16.2652 30 16.5196 29.8946 16.7071 29.7071C16.8946 29.5196 17 29.2652 17 29V25.9125C19.2726 25.692 21.4004 24.6975 23.0274 23.0955C24.6544 21.4936 25.6817 19.3814 25.9375 17.1125C25.9531 16.9817 25.9423 16.8492 25.9059 16.7226C25.8695 16.596 25.8082 16.478 25.7255 16.3755C25.6428 16.273 25.5404 16.1881 25.4244 16.1258C25.3084 16.0634 25.1811 16.0249 25.05 16.0125Z" fill="#633BBC"/>
<path d="M47.7273 23H43.2912V9.90909H47.8168C49.1165 9.90909 50.233 10.1712 51.1662 10.6953C52.1037 11.2152 52.8239 11.9631 53.3267 12.9389C53.8295 13.9148 54.081 15.0824 54.081 16.4418C54.081 17.8054 53.8274 18.9773 53.3203 19.9574C52.8175 20.9375 52.0909 21.6896 51.1406 22.2138C50.1946 22.7379 49.0568 23 47.7273 23ZM45.6626 20.9482H47.6122C48.5241 20.9482 49.2848 20.782 49.8942 20.4496C50.5036 20.1129 50.9616 19.6122 51.2685 18.9474C51.5753 18.2784 51.7287 17.4432 51.7287 16.4418C51.7287 15.4403 51.5753 14.6094 51.2685 13.9489C50.9616 13.2841 50.5078 12.7876 49.907 12.4595C49.3104 12.1271 48.5689 11.9609 47.6825 11.9609H45.6626V20.9482ZM60.5785 23.1918C59.5941 23.1918 58.744 22.9872 58.0281 22.5781C57.3164 22.1648 56.7688 21.581 56.3853 20.8267C56.0018 20.0682 55.81 19.1754 55.81 18.1484C55.81 17.1385 56.0018 16.2521 56.3853 15.4893C56.7731 14.7223 57.3143 14.1257 58.0089 13.6996C58.7035 13.2692 59.5195 13.054 60.457 13.054C61.0621 13.054 61.6332 13.152 62.1701 13.348C62.7113 13.5398 63.1886 13.8381 63.6019 14.2429C64.0195 14.6477 64.3477 15.1634 64.5863 15.7898C64.8249 16.4119 64.9442 17.1534 64.9442 18.0142V18.7237H56.8967V17.1641H62.7262C62.7219 16.7209 62.6261 16.3267 62.4386 15.9815C62.2511 15.6321 61.989 15.3572 61.6523 15.157C61.32 14.9567 60.9322 14.8565 60.489 14.8565C60.016 14.8565 59.6005 14.9716 59.2425 15.2017C58.8846 15.4276 58.6055 15.7259 58.4052 16.0966C58.2092 16.4631 58.109 16.8658 58.1048 17.3047V18.6662C58.1048 19.2372 58.2092 19.7273 58.418 20.1364C58.6268 20.5412 58.9187 20.8523 59.2937 21.0696C59.6687 21.2827 60.1076 21.3892 60.6104 21.3892C60.9471 21.3892 61.2518 21.3423 61.5245 21.2486C61.7972 21.1506 62.0337 21.0078 62.234 20.8203C62.4343 20.6328 62.5856 20.4006 62.6879 20.1236L64.8484 20.3665C64.712 20.9375 64.4521 21.4361 64.0685 21.8622C63.6893 22.2841 63.2035 22.6122 62.6112 22.8466C62.0188 23.0767 61.3413 23.1918 60.5785 23.1918ZM75.3904 13.1818L71.894 23H69.3372L65.8407 13.1818H68.3081L70.5645 20.4751H70.6667L72.9295 13.1818H75.3904ZM77.8018 23.1406C77.4141 23.1406 77.0817 23.0043 76.8047 22.7315C76.5277 22.4588 76.3913 22.1264 76.3956 21.7344C76.3913 21.3509 76.5277 21.0227 76.8047 20.75C77.0817 20.4773 77.4141 20.3409 77.8018 20.3409C78.1768 20.3409 78.5028 20.4773 78.7798 20.75C79.0611 21.0227 79.2038 21.3509 79.2081 21.7344C79.2038 21.9943 79.1357 22.2308 79.0036 22.4439C78.8757 22.657 78.7053 22.8274 78.4922 22.9553C78.2834 23.0788 78.0533 23.1406 77.8018 23.1406ZM85.8798 23.1918C84.8997 23.1918 84.0581 22.9766 83.3549 22.5462C82.6561 22.1158 82.117 21.5213 81.7377 20.7628C81.3627 20 81.1752 19.1222 81.1752 18.1293C81.1752 17.1321 81.367 16.2521 81.7505 15.4893C82.1341 14.7223 82.6752 14.1257 83.3741 13.6996C84.0772 13.2692 84.9082 13.054 85.867 13.054C86.6639 13.054 87.3691 13.201 87.9828 13.495C88.6007 13.7848 89.0929 14.196 89.4593 14.7287C89.8258 15.2571 90.0346 15.875 90.0858 16.5824H87.8741C87.7846 16.1094 87.5716 15.7152 87.2349 15.3999C86.9025 15.0803 86.4572 14.9205 85.899 14.9205C85.426 14.9205 85.0105 15.0483 84.6525 15.304C84.2946 15.5554 84.0154 15.9176 83.8152 16.3906C83.6191 16.8636 83.5211 17.4304 83.5211 18.0909C83.5211 18.7599 83.6191 19.3352 83.8152 19.8168C84.0112 20.294 84.286 20.6626 84.6397 20.9226C84.9977 21.1783 85.4174 21.3061 85.899 21.3061C86.2399 21.3061 86.5446 21.2422 86.813 21.1143C87.0858 20.9822 87.3137 20.7926 87.497 20.5455C87.6802 20.2983 87.8059 19.9979 87.8741 19.6442H90.0858C90.0304 20.3388 89.8258 20.9545 89.4721 21.4915C89.1184 22.0241 88.6369 22.4418 88.0275 22.7443C87.4181 23.0426 86.7022 23.1918 85.8798 23.1918ZM94.8111 23.1982C94.1889 23.1982 93.6286 23.0874 93.13 22.8658C92.6357 22.6399 92.2436 22.3075 91.9538 21.8686C91.6683 21.4297 91.5256 20.8885 91.5256 20.245C91.5256 19.6911 91.6278 19.233 91.8324 18.8707C92.0369 18.5085 92.3161 18.2188 92.6697 18.0014C93.0234 17.7841 93.4219 17.62 93.8651 17.5092C94.3125 17.3942 94.7749 17.3111 95.2521 17.2599C95.8274 17.2003 96.294 17.147 96.652 17.1001C97.0099 17.049 97.2699 16.9723 97.4318 16.87C97.598 16.7635 97.6811 16.5994 97.6811 16.3778V16.3395C97.6811 15.858 97.5384 15.4851 97.2528 15.2209C96.9673 14.9567 96.5561 14.8246 96.0192 14.8246C95.4524 14.8246 95.0028 14.9482 94.6705 15.1953C94.3423 15.4425 94.1207 15.7344 94.0057 16.071L91.8452 15.7642C92.0156 15.1676 92.2969 14.669 92.6889 14.2685C93.081 13.8636 93.5604 13.5611 94.1271 13.3608C94.6939 13.1562 95.3203 13.054 96.0064 13.054C96.4794 13.054 96.9503 13.1094 97.419 13.2202C97.8878 13.331 98.3161 13.5142 98.7038 13.7699C99.0916 14.0213 99.4027 14.3643 99.6371 14.799C99.8757 15.2337 99.995 15.777 99.995 16.429V23H97.7706V21.6513H97.6939C97.5533 21.924 97.3551 22.1797 97.0994 22.4183C96.848 22.6527 96.5305 22.8423 96.147 22.9872C95.7678 23.1278 95.3224 23.1982 94.8111 23.1982ZM95.4119 21.4979C95.8764 21.4979 96.2791 21.4062 96.62 21.223C96.9609 21.0355 97.223 20.7884 97.4062 20.4815C97.5938 20.1747 97.6875 19.8402 97.6875 19.478V18.321C97.6151 18.3807 97.4915 18.4361 97.3168 18.4872C97.1463 18.5384 96.9545 18.5831 96.7415 18.6214C96.5284 18.6598 96.3175 18.6939 96.1087 18.7237C95.8999 18.7536 95.7188 18.7791 95.5653 18.8004C95.2202 18.8473 94.9112 18.924 94.6385 19.0305C94.3658 19.1371 94.1506 19.2862 93.9929 19.478C93.8352 19.6655 93.7564 19.9084 93.7564 20.2067C93.7564 20.6328 93.9119 20.9545 94.223 21.1719C94.5341 21.3892 94.9304 21.4979 95.4119 21.4979ZM110.082 15.777L107.972 16.0071C107.913 15.794 107.808 15.5938 107.659 15.4062C107.514 15.2188 107.318 15.0675 107.071 14.9524C106.824 14.8374 106.521 14.7798 106.163 14.7798C105.682 14.7798 105.277 14.8842 104.949 15.093C104.625 15.3018 104.465 15.5724 104.469 15.9048C104.465 16.1903 104.57 16.4226 104.783 16.6016C105 16.7805 105.358 16.9276 105.857 17.0426L107.531 17.4006C108.46 17.6009 109.151 17.9183 109.602 18.353C110.058 18.7876 110.288 19.3565 110.293 20.0597C110.288 20.6776 110.107 21.223 109.749 21.696C109.396 22.1648 108.903 22.5312 108.273 22.7955C107.642 23.0597 106.918 23.1918 106.099 23.1918C104.898 23.1918 103.93 22.9403 103.197 22.4375C102.464 21.9304 102.028 21.2251 101.887 20.3217L104.143 20.1044C104.246 20.5476 104.463 20.8821 104.795 21.108C105.128 21.3338 105.56 21.4467 106.093 21.4467C106.643 21.4467 107.084 21.3338 107.416 21.108C107.753 20.8821 107.921 20.603 107.921 20.2706C107.921 19.9893 107.813 19.7571 107.595 19.5739C107.382 19.3906 107.05 19.25 106.598 19.152L104.923 18.8004C103.982 18.6044 103.285 18.2741 102.833 17.8097C102.381 17.3409 102.158 16.7486 102.162 16.0327C102.158 15.4276 102.322 14.9034 102.654 14.4602C102.991 14.0128 103.457 13.6676 104.054 13.4247C104.655 13.1776 105.347 13.054 106.131 13.054C107.282 13.054 108.188 13.299 108.848 13.7891C109.513 14.2791 109.924 14.9418 110.082 15.777ZM117.103 13.1818V14.9716H111.459V13.1818H117.103ZM112.853 10.8295H115.167V20.0469C115.167 20.358 115.213 20.5966 115.307 20.7628C115.405 20.9247 115.533 21.0355 115.691 21.0952C115.848 21.1548 116.023 21.1847 116.215 21.1847C116.36 21.1847 116.492 21.174 116.611 21.1527C116.735 21.1314 116.828 21.1122 116.892 21.0952L117.282 22.9041C117.159 22.9467 116.982 22.9936 116.752 23.0447C116.526 23.0959 116.249 23.1257 115.921 23.1342C115.341 23.1513 114.819 23.0639 114.355 22.8722C113.89 22.6761 113.522 22.3736 113.249 21.9645C112.98 21.5554 112.848 21.044 112.853 20.4304V10.8295Z" fill="#EBEBEB"/>
</svg>
