<svg width="32" height="32" viewBox="0 0 32 32" fill="none" xmlns="http://www.w3.org/2000/svg">
<path d="M16 22C17.5913 22 19.1174 21.3679 20.2426 20.2426C21.3679 19.1174 22 17.5913 22 16V8C22 6.4087 21.3679 4.88258 20.2426 3.75736C19.1174 2.63214 17.5913 2 16 2C14.4087 2 12.8826 2.63214 11.7574 3.75736C10.6321 4.88258 10 6.4087 10 8V16C10 17.5913 10.6321 19.1174 11.7574 20.2426C12.8826 21.3679 14.4087 22 16 22Z" fill="#633BBC"/>
<path d="M25.05 16.0125C24.7884 15.9843 24.5262 16.0604 24.3203 16.2241C24.1144 16.3879 23.9814 16.6263 23.95 16.8875C23.7304 18.8423 22.7983 20.6477 21.3318 21.9587C19.8652 23.2697 17.9671 23.9945 16 23.9945C14.0329 23.9945 12.1347 23.2697 10.6682 21.9587C9.20167 20.6477 8.26957 18.8423 8.04999 16.8875C8.01861 16.6263 7.88555 16.3879 7.67964 16.2241C7.47374 16.0604 7.21158 15.9843 6.94998 16.0125C6.81887 16.0249 6.69157 16.0634 6.57556 16.1258C6.45956 16.1881 6.35719 16.273 6.2745 16.3755C6.1918 16.478 6.13044 16.596 6.09403 16.7226C6.05762 16.8492 6.0469 16.9817 6.06249 17.1125C6.31824 19.3814 7.34558 21.4936 8.97256 23.0955C10.5995 24.6975 12.7274 25.692 15 25.9125V29C15 29.2652 15.1053 29.5196 15.2929 29.7071C15.4804 29.8946 15.7348 30 16 30C16.2652 30 16.5196 29.8946 16.7071 29.7071C16.8946 29.5196 17 29.2652 17 29V25.9125C19.2726 25.692 21.4004 24.6975 23.0274 23.0955C24.6544 21.4936 25.6817 19.3814 25.9375 17.1125C25.9531 16.9817 25.9423 16.8492 25.9059 16.7226C25.8695 16.596 25.8082 16.478 25.7255 16.3755C25.6428 16.273 25.5404 16.1881 25.4244 16.1258C25.3084 16.0634 25.1811 16.0249 25.05 16.0125Z" fill="#633BBC"/>
</svg>
