<svg width="414" height="736" viewBox="0 0 414 736" fill="none" xmlns="http://www.w3.org/2000/svg">
<rect width="413" height="736" fill="#121214"/>
<path d="M641.369 228.635C641.369 369.027 527.82 482.836 387.753 482.836C247.686 482.836 134.137 369.027 134.137 228.635C134.137 88.242 247.686 -25.5667 387.753 -25.5667C527.82 -25.5667 641.369 88.242 641.369 228.635Z" stroke="#242323"/>
<path d="M224.399 423.764C224.862 422.858 224.88 422.707 225.509 423.13L225.678 423.215C226.196 423.447 226.928 423.607 227.412 423.576C228.44 423.503 229.216 423.01 228.288 422.855C226.17 422.498 226.282 421.758 226.282 421.758C229.532 419.407 231.894 415.728 231.51 414.449C230.468 410.96 226.463 410.839 226.392 410.849L226.371 410.845C226.015 410.609 225.606 410.391 225.112 410.189C224.229 409.825 223.461 409.813 222.801 410.011C222.801 410.011 217.493 404.857 215.543 411.006C215.129 412.314 213.718 421.429 216.724 419.687C217.824 419.051 218.844 418.549 218.844 418.549C219.112 418.938 219.498 419.234 219.968 419.367L220.014 419.35C219.959 419.467 219.919 419.591 219.894 419.718C219.138 420.119 219.254 420.288 218.111 420.095C216.955 419.9 217.435 420.553 217.806 420.821C218.256 421.146 219.342 421.782 220.539 420.966L220.46 421.082C220.605 421.335 220.197 422.389 219.946 423.157C219.695 423.926 219.481 424.652 219.476 425.127C219.472 425.602 219.249 426.745 220.753 426.992C222.012 427.194 223.039 427.175 224.398 423.771" fill="black"/>
<path d="M224.399 423.764C224.862 422.858 224.88 422.707 225.509 423.13L225.678 423.215C226.196 423.447 226.928 423.607 227.412 423.576C228.44 423.503 229.216 423.01 228.288 422.855C226.17 422.498 226.282 421.758 226.282 421.758C229.532 419.407 231.894 415.728 231.51 414.449C230.468 410.96 226.463 410.839 226.392 410.849L226.371 410.845C226.015 410.609 225.606 410.391 225.112 410.189C224.229 409.825 223.461 409.813 222.801 410.011C222.801 410.011 217.493 404.857 215.543 411.006C215.129 412.314 213.718 421.429 216.724 419.687C217.824 419.051 218.844 418.549 218.844 418.549C219.112 418.938 219.498 419.234 219.968 419.367L220.014 419.35C219.959 419.467 219.919 419.591 219.894 419.718C219.138 420.119 219.254 420.288 218.111 420.095C216.955 419.9 217.435 420.553 217.806 420.821C218.256 421.146 219.342 421.782 220.539 420.966L220.46 421.082C220.605 421.335 220.197 422.389 219.946 423.157C219.695 423.926 219.481 424.652 219.476 425.127C219.472 425.602 219.249 426.745 220.753 426.992C222.012 427.194 223.039 427.175 224.398 423.771" stroke="black" stroke-width="5.3725"/>
<path d="M228.279 422.859C226.161 422.502 226.273 421.761 226.273 421.761C229.524 419.411 231.885 415.732 231.502 414.453C230.46 410.964 226.455 410.844 226.384 410.853L226.363 410.849C225.965 410.59 225.544 410.37 225.105 410.193C224.222 409.829 223.454 409.817 222.794 410.015C222.794 410.015 217.485 404.86 215.536 411.01C215.122 412.318 213.711 421.433 216.717 419.691C217.824 419.051 218.844 418.549 218.844 418.549C219.112 418.938 219.498 419.234 219.968 419.367L220.014 419.35C219.959 419.467 219.919 419.591 219.894 419.718C219.138 420.119 219.254 420.288 218.111 420.095C216.955 419.9 217.435 420.553 217.806 420.821C218.256 421.146 219.342 421.782 220.539 420.966L220.46 421.082C220.604 421.335 220.4 422.335 220.058 423.18C219.716 424.024 219.482 424.604 219.474 425.127C219.467 425.65 219.247 426.745 220.751 426.992C222.01 427.194 222.86 426.765 223.357 425.689C223.71 424.924 223.801 425.093 224.072 424.392L224.305 424.101C224.827 423.08 224.851 422.694 225.508 423.137L225.677 423.222C226.195 423.454 226.928 423.614 227.405 423.58C228.432 423.507 229.209 423.015 228.28 422.859L228.279 422.859Z" fill="#363636"/>
<path d="M220.772 420.597C219.978 422.565 219.302 424.596 219.312 425.151C219.322 425.707 219.373 426.819 220.88 427.061C222.139 427.263 222.748 426.933 223.339 425.908L225.072 422.569M222.81 409.963C222.81 409.963 217.49 404.825 215.542 410.975C215.127 412.283 213.716 421.397 216.723 419.656C217.82 419.02 218.77 418.558 218.77 418.558M226.395 410.82C226.152 410.804 230.424 410.799 231.507 414.418C231.888 415.696 229.528 419.376 226.277 421.727" stroke="#EBEBEB" stroke-width="1.79" stroke-linecap="round" stroke-linejoin="round"/>
<path d="M226.279 421.726C226.279 421.726 226.16 422.464 228.285 422.822C229.214 422.978 228.437 423.47 227.41 423.543C226.566 423.604 224.928 423.059 225.077 422.577C225.463 421.33 226.238 422.06 226.285 421.728C226.328 421.429 226.019 420.998 226.001 420.218C225.984 419.538 224.662 413.848 228.478 416.117C228.639 416.145 228.899 411.714 225.117 410.159C221.335 408.604 219.645 413.523 219.645 413.523" stroke="#EBEBEB" stroke-width="1.79" stroke-linecap="round" stroke-linejoin="bevel"/>
<path d="M219.889 419.689C219.133 420.09 219.25 420.258 218.107 420.065C216.95 419.871 217.43 420.524 217.801 420.791C218.252 421.116 219.337 421.752 220.535 420.936C220.9 420.687 220.863 420.047 220.589 419.78C220.456 419.651 220.277 419.484 219.891 419.69L219.889 419.689Z" stroke="#EBEBEB" stroke-width="1.79" stroke-linejoin="round"/>
<path d="M219.859 419.664C219.938 419.284 220.264 418.925 220.63 418.497C221.178 417.855 222.08 417.352 222.464 414.781C222.75 412.865 219.735 413.283 219.645 413.523C219.556 413.763 219.306 414.784 218.73 415.86C217.977 417.264 218.63 418.959 219.965 419.338" stroke="#EBEBEB" stroke-width="1.79" stroke-linecap="round" stroke-linejoin="round"/>
<path d="M221.242 414.111C221.2 414.188 221.276 414.469 221.47 414.579C221.663 414.689 221.901 414.587 221.943 414.509C221.986 414.431 221.861 414.28 221.668 414.17C221.474 414.06 221.282 414.034 221.242 414.111Z" fill="#EBEBEB" stroke="#EBEBEB" stroke-width="0.5975"/>
<path d="M227.528 416.395C227.509 416.481 227.271 416.638 227.055 416.587C226.84 416.536 226.727 416.296 226.748 416.21C226.768 416.123 226.958 416.095 227.173 416.146C227.389 416.197 227.548 416.31 227.528 416.395Z" fill="#EBEBEB" stroke="#EBEBEB" stroke-width="0.2975"/>
<path d="M228.47 416.116C228.265 416.773 227.934 417.143 227.658 417.819C227.257 418.801 227.326 420.133 226.161 420.981" stroke="#EBEBEB" stroke-width="1.79" stroke-linecap="round" stroke-linejoin="round"/>
<g clip-path="url(#clip0_54_345)">
<path d="M301.585 462.783L303.387 463.189L302.984 465.085L303.895 465.291C304.321 465.385 304.76 465.407 305.193 465.357C305.42 465.332 305.645 465.283 305.862 465.211C305.69 464.804 305.632 464.356 305.695 463.917C305.753 463.268 306.046 462.666 306.515 462.23L306.752 462.047L306.938 462.285C307.44 462.871 307.703 463.634 307.67 464.415C308.413 464.352 309.149 464.593 309.719 465.086L309.935 465.289L309.75 465.519C309.389 465.917 308.921 466.195 308.406 466.319C307.891 466.443 307.352 466.407 306.857 466.215C304.445 469.864 300.646 470.993 296.526 470.066C294.398 469.586 292.62 468.328 291.921 466.134L291.909 466.098L291.822 465.726C291.638 464.786 291.695 463.813 291.987 462.903L292.072 462.627L293.612 462.974L294.015 461.078L295.818 461.484L296.212 459.627L299.817 460.439L300.211 458.585L302.373 459.072L301.585 462.783Z" fill="#363636"/>
<path d="M297.087 469.861C296.288 469.276 295.733 468.401 295.535 467.412C295.041 467.435 294.547 467.402 294.061 467.313C293.848 467.278 293.628 467.235 293.399 467.183C293.133 467.123 292.855 467.052 292.565 466.97C293.003 467.705 293.589 468.335 294.284 468.816C294.98 469.298 295.767 469.619 296.594 469.759C296.759 469.797 296.923 469.83 297.087 469.861Z" fill="#EBEBEB"/>
<path d="M295.53 461.884L295.656 461.912L295.371 463.253L295.245 463.224L295.53 461.884ZM295.293 461.83L295.419 461.859L295.134 463.199L295.006 463.171L295.291 461.83L295.293 461.83ZM295.056 461.777L295.182 461.805L294.897 463.146L294.771 463.118L295.056 461.777ZM294.819 461.724L294.945 461.752L294.661 463.093L294.535 463.064L294.819 461.724ZM294.583 461.67L294.709 461.699L294.424 463.039L294.298 463.011L294.583 461.67ZM294.351 461.618L294.477 461.646L294.192 462.987L294.066 462.959L294.351 461.618ZM294.248 461.455L295.812 461.807L295.47 463.415L293.906 463.063L294.248 461.455ZM296.444 460.005L298.006 460.357L297.665 461.965L296.105 461.613L296.444 460.005ZM297.724 460.434L297.85 460.462L297.565 461.802L297.439 461.774L297.724 460.434ZM297.487 460.381L297.613 460.409L297.328 461.749L297.202 461.721L297.487 460.381ZM297.25 460.327L297.376 460.356L297.091 461.696L296.965 461.667L297.25 460.327ZM297.013 460.274L297.139 460.302L296.854 461.642L296.728 461.614L297.013 460.274ZM296.776 460.22L296.902 460.249L296.617 461.589L296.491 461.561L296.776 460.22ZM296.544 460.168L296.67 460.197L296.386 461.537L296.26 461.508L296.544 460.168ZM296.048 461.86L297.611 462.212L297.269 463.82L295.71 463.469L296.052 461.861L296.048 461.86ZM297.328 462.289L297.454 462.317L297.169 463.658L297.043 463.629L297.328 462.289ZM297.091 462.235L297.217 462.264L296.933 463.604L296.807 463.576L297.091 462.235ZM296.855 462.182L296.981 462.21L296.696 463.551L296.57 463.523L296.855 462.182ZM296.618 462.129L296.744 462.157L296.459 463.498L296.333 463.469L296.618 462.129ZM296.381 462.075L296.507 462.104L296.222 463.444L296.096 463.416L296.381 462.075ZM296.149 462.023L296.275 462.051L295.99 463.392L295.864 463.364L296.149 462.023ZM297.85 462.265L299.415 462.618L299.073 464.226L297.51 463.875L297.852 462.267L297.85 462.265ZM299.129 462.694L299.26 462.724L298.975 464.064L298.849 464.036L299.129 462.694ZM298.892 462.641L299.018 462.669L298.733 464.01L298.607 463.982L298.892 462.641ZM298.655 462.587L298.781 462.616L298.496 463.957L298.37 463.928L298.655 462.587ZM298.418 462.534L298.544 462.563L298.26 463.903L298.133 463.875L298.418 462.534ZM298.181 462.481L298.307 462.509L298.023 463.85L297.897 463.822L298.181 462.481ZM297.95 462.429L298.076 462.457L297.791 463.798L297.665 463.769L297.95 462.429ZM298.243 460.41L299.809 460.763L299.467 462.371L297.905 462.019L298.246 460.411L298.243 460.41ZM299.522 460.839L299.654 460.869L299.37 462.209L299.244 462.18L299.522 460.839ZM299.285 460.785L299.411 460.814L299.126 462.154L299 462.126L299.285 460.785ZM299.048 460.732L299.174 460.76L298.889 462.101L298.763 462.072L299.048 460.732ZM298.811 460.679L298.937 460.707L298.653 462.047L298.527 462.019L298.811 460.679ZM298.574 460.625L298.7 460.654L298.416 461.994L298.29 461.965L298.574 460.625ZM298.343 460.573L298.469 460.602L298.184 461.942L298.058 461.913L298.343 460.573ZM299.649 462.671L301.211 463.022L300.869 464.631L299.307 464.279L299.648 462.671L299.649 462.671ZM300.929 463.099L301.055 463.128L300.77 464.469L300.644 464.44L300.929 463.099ZM300.692 463.046L300.818 463.074L300.533 464.415L300.407 464.387L300.692 463.046ZM300.455 462.993L300.581 463.021L300.296 464.362L300.17 464.333L300.455 462.993ZM300.218 462.939L300.344 462.968L300.059 464.308L299.933 464.28L300.218 462.939ZM299.981 462.886L300.107 462.914L299.822 464.255L299.696 464.227L299.981 462.886ZM299.749 462.834L299.87 462.861L299.585 464.202L299.459 464.173L299.744 462.833L299.749 462.834ZM300.042 460.815L301.604 461.167L301.262 462.775L299.7 462.423L300.041 460.815L300.042 460.815ZM301.321 461.244L301.448 461.272L301.163 462.613L301.037 462.584L301.321 461.244ZM301.085 461.191L301.211 461.219L300.926 462.559L300.8 462.531L301.085 461.191ZM300.848 461.137L300.974 461.166L300.689 462.506L300.563 462.477L300.848 461.137ZM300.611 461.084L300.737 461.112L300.452 462.452L300.326 462.424L300.611 461.084ZM300.374 461.031L300.5 461.059L300.215 462.399L300.089 462.371L300.374 461.031ZM300.142 460.978L300.263 461.006L299.978 462.346L299.852 462.317L300.137 460.977L300.142 460.978ZM300.435 458.96L301.997 459.312L301.655 460.921L300.092 460.569L300.434 458.96L300.435 458.96ZM301.715 459.388L301.841 459.416L301.556 460.756L301.43 460.728L301.715 459.388ZM301.478 459.335L301.604 459.363L301.319 460.703L301.193 460.675L301.478 459.335ZM301.241 459.281L301.367 459.31L301.082 460.65L300.956 460.621L301.241 459.281ZM301.004 459.228L301.13 459.256L300.845 460.596L300.719 460.568L301.004 459.228ZM300.767 459.175L300.893 459.203L300.608 460.543L300.482 460.515L300.767 459.175ZM300.535 459.122L300.656 459.15L300.371 460.49L300.245 460.461L300.53 459.121L300.535 459.122ZM301.447 463.076L303.009 463.427L302.667 465.036L301.105 464.684L301.447 463.076L301.447 463.076ZM302.727 463.504L302.85 463.532L302.565 464.873L302.439 464.844L302.724 463.504L302.727 463.504ZM302.49 463.451L302.62 463.48L302.335 464.821L302.205 464.792L302.49 463.451ZM302.253 463.398L302.379 463.426L302.094 464.767L301.968 464.738L302.253 463.398ZM302.016 463.344L302.142 463.373L301.857 464.713L301.731 464.685L302.016 463.344ZM301.779 463.291L301.905 463.319L301.62 464.66L301.491 464.631L301.776 463.29L301.779 463.291ZM301.547 463.239L301.673 463.267L301.388 464.608L301.266 464.58L301.551 463.24L301.547 463.239Z" fill="#EBEBEB"/>
<path d="M296.621 466.406C296.706 466.425 296.784 466.47 296.845 466.535C296.905 466.599 296.946 466.681 296.961 466.769C296.977 466.858 296.966 466.949 296.931 467.031C296.896 467.114 296.838 467.183 296.765 467.232C296.692 467.28 296.606 467.305 296.519 467.304C296.431 467.302 296.347 467.274 296.275 467.222C296.203 467.171 296.148 467.099 296.116 467.015C296.084 466.932 296.077 466.84 296.096 466.753C296.121 466.635 296.19 466.532 296.289 466.467C296.387 466.402 296.507 466.38 296.621 466.406ZM296.594 466.532C296.633 466.54 296.669 466.556 296.701 466.578C296.682 466.584 296.665 466.595 296.651 466.609C296.636 466.624 296.625 466.641 296.619 466.66C296.612 466.68 296.61 466.7 296.612 466.721C296.614 466.741 296.621 466.761 296.632 466.778C296.643 466.795 296.658 466.809 296.675 466.82C296.692 466.83 296.712 466.836 296.732 466.838C296.751 466.839 296.771 466.835 296.79 466.828C296.808 466.82 296.825 466.807 296.838 466.792C296.85 466.86 296.84 466.931 296.811 466.994C296.781 467.057 296.732 467.108 296.672 467.14C296.612 467.172 296.543 467.183 296.476 467.172C296.409 467.161 296.347 467.128 296.3 467.078C296.253 467.027 296.222 466.963 296.214 466.894C296.205 466.825 296.218 466.754 296.25 466.693C296.283 466.632 296.335 466.584 296.396 466.555C296.458 466.526 296.527 466.518 296.594 466.533L296.594 466.532Z" fill="#EBEBEB"/>
</g>
<g clip-path="url(#clip1_54_345)">
<path d="M385.073 487.379L384.434 486.999L391.547 474.317L392.186 474.696L385.073 487.379Z" fill="#363636"/>
<path d="M384.288 485.986H398.514V486.745H384.288V485.986Z" fill="#363636"/>
<path d="M391.685 490.642L384.569 486.412L384.938 485.755L392.054 489.985L391.685 490.642ZM397.866 479.619L390.751 475.39L391.119 474.732L398.235 478.962L397.866 479.619Z" fill="#363636"/>
<path d="M384.94 479.616L384.571 478.959L391.687 474.729L392.056 475.387L384.94 479.616Z" fill="#363636"/>
<path d="M397.735 487.379L390.622 474.696L391.261 474.317L398.374 486.999L397.735 487.379ZM384.852 478.455H385.589V486.914H384.852V478.455ZM397.217 478.455H397.954V486.914H397.217V478.455Z" fill="#363636"/>
<path d="M391.56 490.321L391.238 489.746L397.426 486.068L397.748 486.642L391.56 490.321Z" fill="#363636"/>
<path d="M398.931 487.161C398.505 487.925 397.554 488.185 396.813 487.746C396.071 487.307 395.818 486.329 396.244 485.565C396.671 484.802 397.621 484.541 398.363 484.98C399.109 485.424 399.362 486.398 398.931 487.161ZM386.558 479.804C386.131 480.568 385.181 480.828 384.439 480.39C383.697 479.951 383.444 478.972 383.871 478.209C384.297 477.445 385.247 477.184 385.989 477.623C386.731 478.067 386.984 479.041 386.558 479.804ZM383.875 487.161C383.449 486.398 383.702 485.424 384.443 484.98C385.185 484.541 386.131 484.802 386.562 485.565C386.988 486.329 386.735 487.303 385.993 487.746C385.247 488.185 384.301 487.925 383.875 487.161ZM396.249 479.804C395.822 479.041 396.075 478.067 396.817 477.623C397.559 477.184 398.505 477.445 398.936 478.209C399.362 478.972 399.109 479.946 398.367 480.39C397.626 480.828 396.675 480.568 396.249 479.804ZM391.403 491.637C390.546 491.637 389.853 490.924 389.853 490.042C389.853 489.159 390.546 488.446 391.403 488.446C392.26 488.446 392.953 489.159 392.953 490.042C392.953 490.92 392.26 491.637 391.403 491.637ZM391.403 476.924C390.546 476.924 389.853 476.21 389.853 475.328C389.853 474.446 390.546 473.732 391.403 473.732C392.26 473.732 392.953 474.446 392.953 475.328C392.953 476.21 392.26 476.924 391.403 476.924Z" fill="#363636"/>
</g>
<path d="M591.836 175.517C591.836 304.764 487.871 409.533 359.633 409.533C231.394 409.533 127.429 304.764 127.429 175.517C127.429 46.2691 231.394 -58.5 359.633 -58.5C487.871 -58.5 591.836 46.2691 591.836 175.517Z" stroke="#242323"/>
<g clip-path="url(#clip2_54_345)">
<path d="M208.662 362.335L212.716 347.554L226.32 352.891L219.789 366.699L213.629 366.102L208.662 362.335Z" fill="#363636"/>
<path d="M219.065 365.372L224.646 353.573L219.085 351.391L214.087 364.891L219.065 365.372Z" fill="#696968"/>
<path d="M218.43 353.142L214.165 351.469L212.662 356.951L216.473 358.447L217.122 356.693L214.869 355.809L215.378 353.953L217.787 354.898L218.436 353.144L218.43 353.142ZM215.439 361.241L215.431 361.24L213.729 359.969L214.126 358.523L212.416 357.852L211.635 360.698L214.756 363.06L214.765 363.061L215.439 361.241Z" fill="#EBEBEB"/>
<path d="M216.467 358.444L218.565 359.267L217.53 361.465L215.435 361.247L214.76 363.071L218.62 363.445L221.081 358.246L217.123 356.692L216.467 358.444ZM222.482 355.271L222.696 354.816L218.429 353.142L217.78 354.895L221.894 356.509L222.074 356.128L222.482 355.271Z" fill="white"/>
</g>
<g clip-path="url(#clip3_54_345)">
<path d="M276.068 404.536L270.683 400.618L274.712 384.738L289.356 390.145L282.661 405.039L276.068 404.536Z" fill="#363636"/>
<path d="M281.86 403.637L287.581 390.91L281.595 388.7L276.533 403.231L281.86 403.637Z" fill="#696968"/>
<path d="M275.34 392.832L274.847 394.78L278.949 396.295L279.607 394.407L275.34 392.832Z" fill="#EBEBEB"/>
<path d="M276.341 388.89L275.85 390.839L280.28 392.475L280.938 390.587L276.341 388.89Z" fill="#EBEBEB"/>
<path d="M277.899 399.309L277.89 399.308L276.046 397.987L276.44 396.433L274.6 395.754L273.824 398.812L277.206 401.272L277.215 401.272L277.899 399.309Z" fill="#EBEBEB"/>
<path d="M283.862 395.978L285.524 392.281L280.932 390.585L280.274 392.472L282.857 393.426L282.017 395.297L279.601 394.405L278.943 396.292L281.201 397.126L280.135 399.495L277.892 399.308L277.208 401.272L281.34 401.587L281.479 401.278L283.641 396.469L283.862 395.978Z" fill="white"/>
</g>
<g clip-path="url(#clip4_54_345)">
<path d="M344.414 400.472L360.861 401.961L359.415 418.893L342.967 417.404L344.414 400.472Z" fill="#363636"/>
<path d="M347.53 415.013L348.855 414.343C349.06 414.808 349.249 415.203 349.779 415.251C350.287 415.297 350.625 415.122 350.693 414.326L351.155 408.916L352.7 409.056L352.236 414.489C352.095 416.137 351.093 416.802 349.724 416.678C348.487 416.566 347.826 415.842 347.53 415.013M353.01 415.338L354.332 414.701C354.616 415.288 355.012 415.737 355.773 415.806C356.414 415.864 356.85 415.571 356.889 415.116C356.936 414.571 356.533 414.339 355.853 413.957L355.482 413.752C354.408 413.162 353.721 412.481 353.832 411.186C353.934 409.992 354.895 409.163 356.275 409.288C357.257 409.377 357.934 409.793 358.363 410.76L357.091 411.446C356.868 410.934 356.598 410.715 356.156 410.675C355.703 410.634 355.391 410.903 355.358 411.289C355.317 411.767 355.588 411.986 356.225 412.342L356.597 412.547C357.861 413.246 358.55 413.904 358.437 415.233C358.314 416.666 357.154 417.351 355.686 417.218C354.251 417.088 353.384 416.299 353.01 415.338" fill="#EBEBEB"/>
</g>
<g clip-path="url(#clip5_54_345)">
<path d="M424.763 405.467C423.135 406.551 421.35 407.361 419.475 407.868C418.602 408.091 417.697 408.145 416.805 408.028C416.476 408.004 416.156 407.906 415.868 407.742C415.579 407.578 415.328 407.352 415.133 407.079C414.576 406.143 415.028 404.596 416.344 402.94C417.653 401.384 419.197 400.055 420.917 399.006C422.585 397.92 424.411 397.117 426.325 396.626C427.167 396.413 428.038 396.355 428.9 396.455C429.22 396.474 429.532 396.566 429.814 396.723C430.096 396.881 430.34 397.1 430.531 397.365C431.11 398.338 430.58 400.028 429.146 401.775C427.877 403.229 426.399 404.474 424.763 405.467ZM421.32 399.683C419.676 400.689 418.198 401.959 416.941 403.444C415.73 404.968 415.49 406.16 415.789 406.662C416.102 407.187 417.336 407.545 419.306 407.091C421.098 406.604 422.804 405.827 424.36 404.79C425.926 403.842 427.342 402.652 428.558 401.262C429.905 399.619 430.183 398.306 429.871 397.782C429.736 397.619 429.57 397.487 429.383 397.394C429.196 397.302 428.993 397.249 428.785 397.242C428.017 397.156 427.24 397.21 426.49 397.402C424.66 397.874 422.915 398.644 421.32 399.683Z" fill="#696968"/>
<path d="M423.91 411.252C423.657 411.42 423.365 411.515 423.064 411.53C421.999 411.559 420.923 410.382 420.187 408.382C419.531 406.437 419.185 404.396 419.161 402.337C419.081 400.308 419.317 398.279 419.86 396.326C420.101 395.469 420.487 394.663 421.002 393.945C421.178 393.669 421.412 393.437 421.685 393.264C421.959 393.091 422.266 392.983 422.585 392.946C423.693 392.915 424.849 394.232 425.604 396.383C426.193 398.242 426.502 400.183 426.521 402.138C426.619 404.131 426.409 406.128 425.899 408.053C425.65 408.943 425.243 409.777 424.699 410.515C424.478 410.804 424.211 411.054 423.91 411.252ZM419.931 402.314C419.957 404.283 420.286 406.236 420.908 408.098C421.586 409.941 422.469 410.749 423.044 410.733C423.64 410.718 424.56 409.796 425.162 407.812C425.647 405.97 425.845 404.06 425.749 402.154C425.733 400.284 425.44 398.427 424.878 396.648C424.168 394.624 423.202 393.719 422.605 393.736C422.401 393.775 422.207 393.857 422.036 393.978C421.864 394.098 421.718 394.253 421.608 394.434C421.153 395.078 420.811 395.799 420.599 396.564C420.082 398.433 419.859 400.374 419.937 402.315L419.931 402.314Z" fill="#696968"/>
<path d="M430.16 407.319C429.415 407.789 428.192 407.922 426.687 407.671C424.723 407.286 422.832 406.575 421.088 405.568C419.34 404.626 417.75 403.402 416.378 401.942C415.777 401.299 415.291 400.551 414.943 399.733C414.8 399.438 414.722 399.115 414.713 398.786C414.704 398.456 414.766 398.129 414.894 397.827C415.421 396.824 417.107 396.45 419.294 396.851C421.152 397.253 422.94 397.946 424.594 398.907C426.321 399.814 427.896 400.999 429.262 402.415C429.886 403.082 430.386 403.861 430.734 404.715C430.878 405.02 430.956 405.354 430.963 405.693C430.97 406.032 430.905 406.369 430.774 406.68C430.628 406.945 430.416 407.166 430.16 407.319ZM421.454 404.868C423.124 405.829 424.932 406.51 426.809 406.886C428.698 407.201 429.82 406.818 430.089 406.296C430.373 405.755 430.058 404.476 428.688 402.948C427.381 401.598 425.874 400.47 424.224 399.604C422.642 398.684 420.934 398.018 419.157 397.63C417.099 397.252 415.855 397.662 415.571 398.203C415.502 398.404 415.475 398.618 415.49 398.831C415.506 399.044 415.564 399.252 415.661 399.44C415.974 400.168 416.409 400.833 416.946 401.406C418.261 402.8 419.783 403.969 421.456 404.869L421.454 404.868Z" fill="#696968"/>
</g>
<defs>
<clipPath id="clip0_54_345">
<rect width="20.6671" height="21.2198" fill="white" transform="matrix(0.975568 0.219696 -0.207846 0.978162 292.909 452.222)"/>
</clipPath>
<clipPath id="clip1_54_345">
<rect width="20.6389" height="21.2472" fill="white" transform="translate(382.335 474.04)"/>
</clipPath>
<clipPath id="clip2_54_345">
<rect width="16.5736" height="16.9368" fill="white" transform="matrix(0.930906 0.365259 -0.347192 0.937794 211.804 347.195)"/>
</clipPath>
<clipPath id="clip3_54_345">
<rect width="16.5673" height="18.3549" fill="white" transform="matrix(0.938092 0.346387 -0.329008 0.944327 274.75 384.547)"/>
</clipPath>
<clipPath id="clip4_54_345">
<rect width="16.5149" height="16.9941" fill="white" transform="matrix(0.995926 0.090173 -0.0851211 0.996371 344.414 400.472)"/>
</clipPath>
<clipPath id="clip5_54_345">
<rect width="20.8067" height="21.0829" fill="white" transform="matrix(0.845787 -0.533521 0.511455 0.85931 408.65 398.729)"/>
</clipPath>
</defs>
</svg>
