<svg width="160" height="48" viewBox="0 0 160 48" fill="none" xmlns="http://www.w3.org/2000/svg">
<path d="M24 33C26.3869 33 28.6761 32.0518 30.364 30.364C32.0518 28.6761 33 26.3869 33 24V12C33 9.61305 32.0518 7.32387 30.364 5.63604C28.6761 3.94821 26.3869 3 24 3C21.6131 3 19.3239 3.94821 17.636 5.63604C15.9482 7.32387 15 9.61305 15 12V24C15 26.3869 15.9482 28.6761 17.636 30.364C19.3239 32.0518 21.6131 33 24 33Z" fill="white"/>
<path d="M37.5749 24.0188C37.1825 23.9765 36.7893 24.0905 36.4804 24.3362C36.1716 24.5819 35.972 24.9394 35.9249 25.3313C35.5955 28.2635 34.1974 30.9715 31.9976 32.9381C29.7978 34.9046 26.9506 35.9917 23.9999 35.9917C21.0493 35.9917 18.202 34.9046 16.0022 32.9381C13.8024 30.9715 12.4043 28.2635 12.0749 25.3313C12.0279 24.9394 11.8283 24.5819 11.5194 24.3362C11.2105 24.0905 10.8173 23.9765 10.4249 24.0188C10.2282 24.0374 10.0373 24.0951 9.86328 24.1887C9.68927 24.2822 9.53573 24.4096 9.41168 24.5633C9.28764 24.717 9.1956 24.894 9.14099 25.0839C9.08637 25.2737 9.07028 25.4726 9.09367 25.6688C9.47729 29.0721 11.0183 32.2404 13.4588 34.6433C15.8992 37.0462 19.091 38.5379 22.4999 38.8688V43.5C22.4999 43.8978 22.658 44.2794 22.9393 44.5607C23.2206 44.842 23.6021 45 23.9999 45C24.3977 45 24.7793 44.842 25.0606 44.5607C25.3419 44.2794 25.4999 43.8978 25.4999 43.5V38.8688C28.9088 38.5379 32.1006 37.0462 34.5411 34.6433C36.9815 32.2404 38.5225 29.0721 38.9062 25.6688C38.9296 25.4726 38.9135 25.2737 38.8588 25.0839C38.8042 24.894 38.7122 24.717 38.5882 24.5633C38.4641 24.4096 38.3106 24.2822 38.1366 24.1887C37.9625 24.0951 37.7716 24.0374 37.5749 24.0188Z" fill="white"/>
<path d="M65.6364 32.5H59.7216V15.0455H65.7557C67.4886 15.0455 68.9773 15.3949 70.2216 16.0938C71.4716 16.7869 72.4318 17.7841 73.1023 19.0852C73.7727 20.3864 74.108 21.9432 74.108 23.7557C74.108 25.5739 73.7699 27.1364 73.0938 28.4432C72.4233 29.75 71.4545 30.7528 70.1875 31.4517C68.9261 32.1506 67.4091 32.5 65.6364 32.5ZM62.8835 29.7642H65.483C66.6989 29.7642 67.7131 29.5426 68.5256 29.0994C69.3381 28.6506 69.9489 27.983 70.358 27.0966C70.767 26.2045 70.9716 25.0909 70.9716 23.7557C70.9716 22.4205 70.767 21.3125 70.358 20.4318C69.9489 19.5455 69.3438 18.8835 68.5426 18.446C67.7472 18.0028 66.7585 17.7812 65.5767 17.7812H62.8835V29.7642ZM82.7713 32.7557C81.4588 32.7557 80.3253 32.483 79.3707 31.9375C78.4219 31.3864 77.6918 30.608 77.1804 29.6023C76.669 28.5909 76.4134 27.4006 76.4134 26.0312C76.4134 24.6847 76.669 23.5028 77.1804 22.4858C77.6974 21.4631 78.419 20.6676 79.3452 20.0994C80.2713 19.5256 81.3594 19.2386 82.6094 19.2386C83.4162 19.2386 84.1776 19.3693 84.8935 19.6307C85.6151 19.8864 86.2514 20.2841 86.8026 20.8239C87.3594 21.3636 87.7969 22.0511 88.1151 22.8864C88.4332 23.7159 88.5923 24.7045 88.5923 25.8523V26.7983H77.8622V24.7188H85.6349C85.6293 24.1278 85.5014 23.6023 85.2514 23.142C85.0014 22.6761 84.652 22.3097 84.2031 22.0426C83.7599 21.7756 83.2429 21.642 82.652 21.642C82.0213 21.642 81.4673 21.7955 80.9901 22.1023C80.5128 22.4034 80.1406 22.8011 79.8736 23.2955C79.6122 23.7841 79.4787 24.321 79.473 24.9062V26.7216C79.473 27.483 79.6122 28.1364 79.8906 28.6818C80.169 29.2216 80.5582 29.6364 81.0582 29.9261C81.5582 30.2102 82.1435 30.3523 82.8139 30.3523C83.2628 30.3523 83.669 30.2898 84.0327 30.1648C84.3963 30.0341 84.7116 29.8438 84.9787 29.5938C85.2457 29.3438 85.4474 29.0341 85.5838 28.6648L88.4645 28.9886C88.2827 29.75 87.9361 30.4148 87.4247 30.983C86.919 31.5455 86.2713 31.983 85.4815 32.2955C84.6918 32.6023 83.7884 32.7557 82.7713 32.7557ZM102.521 19.4091L97.8587 32.5H94.4496L89.7876 19.4091H93.0774L96.0859 29.1335H96.2223L99.2393 19.4091H102.521ZM105.736 32.6875C105.219 32.6875 104.776 32.5057 104.406 32.142C104.037 31.7784 103.855 31.3352 103.861 30.8125C103.855 30.3011 104.037 29.8636 104.406 29.5C104.776 29.1364 105.219 28.9545 105.736 28.9545C106.236 28.9545 106.67 29.1364 107.04 29.5C107.415 29.8636 107.605 30.3011 107.611 30.8125C107.605 31.1591 107.514 31.4744 107.338 31.7585C107.168 32.0426 106.94 32.2699 106.656 32.4403C106.378 32.6051 106.071 32.6875 105.736 32.6875ZM116.506 32.7557C115.2 32.7557 114.077 32.4688 113.14 31.8949C112.208 31.321 111.489 30.5284 110.984 29.517C110.484 28.5 110.234 27.3295 110.234 26.0057C110.234 24.6761 110.489 23.5028 111.001 22.4858C111.512 21.4631 112.234 20.6676 113.165 20.0994C114.103 19.5256 115.211 19.2386 116.489 19.2386C117.552 19.2386 118.492 19.4347 119.31 19.8267C120.134 20.2131 120.79 20.7614 121.279 21.4716C121.768 22.1761 122.046 23 122.114 23.9432H119.165C119.046 23.3125 118.762 22.7869 118.313 22.3665C117.87 21.9403 117.276 21.7273 116.532 21.7273C115.901 21.7273 115.347 21.8977 114.87 22.2386C114.393 22.5739 114.021 23.0568 113.754 23.6875C113.492 24.3182 113.362 25.0739 113.362 25.9545C113.362 26.8466 113.492 27.6136 113.754 28.2557C114.015 28.892 114.381 29.3835 114.853 29.7301C115.33 30.071 115.89 30.2415 116.532 30.2415C116.987 30.2415 117.393 30.1562 117.751 29.9858C118.114 29.8097 118.418 29.5568 118.663 29.2273C118.907 28.8977 119.075 28.4972 119.165 28.0256H122.114C122.04 28.9517 121.768 29.7727 121.296 30.4886C120.825 31.1989 120.183 31.7557 119.37 32.1591C118.558 32.5568 117.603 32.7557 116.506 32.7557ZM128.415 32.7642C127.585 32.7642 126.838 32.6165 126.173 32.321C125.514 32.0199 124.991 31.5767 124.605 30.9915C124.224 30.4062 124.034 29.6847 124.034 28.8267C124.034 28.0881 124.17 27.4773 124.443 26.9943C124.716 26.5114 125.088 26.125 125.56 25.8352C126.031 25.5455 126.563 25.3267 127.153 25.179C127.75 25.0256 128.366 24.9148 129.003 24.8466C129.77 24.767 130.392 24.696 130.869 24.6335C131.347 24.5653 131.693 24.4631 131.909 24.3267C132.131 24.1847 132.241 23.9659 132.241 23.6705V23.6193C132.241 22.9773 132.051 22.4801 131.67 22.1278C131.29 21.7756 130.741 21.5994 130.026 21.5994C129.27 21.5994 128.67 21.7642 128.227 22.0938C127.79 22.4233 127.494 22.8125 127.341 23.2614L124.46 22.8523C124.688 22.0568 125.063 21.392 125.585 20.858C126.108 20.3182 126.747 19.9148 127.503 19.6477C128.259 19.375 129.094 19.2386 130.009 19.2386C130.639 19.2386 131.267 19.3125 131.892 19.4602C132.517 19.608 133.088 19.8523 133.605 20.1932C134.122 20.5284 134.537 20.9858 134.849 21.5653C135.168 22.1449 135.327 22.8693 135.327 23.7386V32.5H132.361V30.7017H132.259C132.071 31.0653 131.807 31.4062 131.466 31.7244C131.131 32.0369 130.707 32.2898 130.196 32.483C129.69 32.6705 129.097 32.7642 128.415 32.7642ZM129.216 30.4972C129.835 30.4972 130.372 30.375 130.827 30.1307C131.281 29.8807 131.631 29.5511 131.875 29.142C132.125 28.733 132.25 28.2869 132.25 27.804V26.2614C132.153 26.3409 131.989 26.4148 131.756 26.483C131.528 26.5511 131.273 26.6108 130.989 26.6619C130.705 26.7131 130.423 26.7585 130.145 26.7983C129.866 26.8381 129.625 26.8722 129.42 26.9006C128.96 26.9631 128.548 27.0653 128.185 27.2074C127.821 27.3494 127.534 27.5483 127.324 27.804C127.114 28.054 127.009 28.3778 127.009 28.7756C127.009 29.3438 127.216 29.7727 127.631 30.0625C128.045 30.3523 128.574 30.4972 129.216 30.4972ZM148.776 22.8693L145.963 23.1761C145.884 22.892 145.744 22.625 145.545 22.375C145.352 22.125 145.091 21.9233 144.761 21.7699C144.432 21.6165 144.028 21.5398 143.551 21.5398C142.909 21.5398 142.369 21.679 141.932 21.9574C141.5 22.2358 141.287 22.5966 141.293 23.0398C141.287 23.4205 141.426 23.7301 141.71 23.9688C142 24.2074 142.477 24.4034 143.142 24.5568L145.375 25.0341C146.614 25.3011 147.534 25.7244 148.136 26.304C148.744 26.8835 149.051 27.642 149.057 28.5795C149.051 29.4034 148.81 30.1307 148.332 30.7614C147.861 31.3864 147.205 31.875 146.364 32.2273C145.523 32.5795 144.557 32.7557 143.466 32.7557C141.864 32.7557 140.574 32.4205 139.597 31.75C138.619 31.0739 138.037 30.1335 137.849 28.929L140.858 28.6392C140.994 29.2301 141.284 29.6761 141.727 29.9773C142.17 30.2784 142.747 30.429 143.457 30.429C144.19 30.429 144.778 30.2784 145.222 29.9773C145.67 29.6761 145.895 29.304 145.895 28.8608C145.895 28.4858 145.75 28.1761 145.46 27.9318C145.176 27.6875 144.733 27.5 144.131 27.3693L141.898 26.9006C140.642 26.6392 139.713 26.1989 139.111 25.5795C138.509 24.9545 138.21 24.1648 138.216 23.2102C138.21 22.4034 138.429 21.7045 138.872 21.1136C139.321 20.517 139.943 20.0568 140.739 19.733C141.54 19.4034 142.463 19.2386 143.509 19.2386C145.043 19.2386 146.25 19.5653 147.131 20.2188C148.017 20.8722 148.565 21.7557 148.776 22.8693ZM158.138 19.4091V21.7955H150.612V19.4091H158.138ZM152.47 16.2727H155.555V28.5625C155.555 28.9773 155.618 29.2955 155.743 29.517C155.874 29.733 156.044 29.8807 156.254 29.9602C156.464 30.0398 156.697 30.0795 156.953 30.0795C157.146 30.0795 157.322 30.0653 157.482 30.0369C157.646 30.0085 157.771 29.983 157.857 29.9602L158.376 32.3722C158.212 32.429 157.976 32.4915 157.669 32.5597C157.368 32.6278 156.999 32.6676 156.561 32.679C155.788 32.7017 155.092 32.5852 154.473 32.3295C153.854 32.0682 153.362 31.6648 152.999 31.1193C152.641 30.5739 152.464 29.892 152.47 29.0739V16.2727Z" fill="white"/>
</svg>
